<svg width="243" height="153" viewBox="0 0 243 153" fill="none" xmlns="http://www.w3.org/2000/svg">
<path fill-rule="evenodd" clip-rule="evenodd" d="M194.498 106.799H215.433H215.977C227.538 106.799 236.997 116.275 236.997 127.857C236.997 139.438 227.538 148.914 215.977 148.914H154.616H144.047H34.354C15.6344 148.914 0.318542 133.57 0.318542 114.817C0.318542 96.0628 15.6344 80.7187 34.3536 80.7184C42.2686 80.7184 48.7444 74.2306 48.7444 66.301C48.7444 58.3714 42.2686 51.8836 34.3533 51.8836H17.0345C8.80554 51.8836 2.07282 45.1381 2.07282 36.8943C2.07282 28.6501 8.80554 21.9046 17.0345 21.9046H48.9287C52.1327 21.9046 54.7534 19.279 54.7534 16.0691C54.7534 12.8593 52.1327 10.2337 48.9287 10.2337H40.3492C38.1382 10.2337 36.329 8.42115 36.329 6.20644V6.20571C36.329 3.991 38.1379 2.17846 40.3492 2.17846H49.5444C49.5444 2.17846 55.0728 2.17846 60.4083 2.17846C65.7437 2.17846 69.1139 8.49283 82.5905 8.49283C103.424 8.49283 109.05 8.49283 129.883 8.49283C132.768 8.49283 135.129 10.8585 135.129 13.748C135.129 16.6378 132.768 19.0031 129.883 19.0031H123.755C119.575 19.0031 116.155 22.4302 116.155 26.6174V26.6182C116.155 30.8054 119.575 34.2328 123.755 34.2328H133.92C154.393 34.2328 157.285 39.593 160.871 50.2539C164.456 60.9148 183.078 61.7742 183.078 61.7742H195.81C202.109 61.7742 207.264 66.9381 207.264 73.2492C207.264 79.5607 202.109 84.725 195.81 84.725H194.498C188.439 84.725 183.481 89.6916 183.481 95.762C183.481 101.832 188.439 106.799 194.498 106.799ZM29.0677 10.2333C31.2881 10.2333 33.0879 8.4302 33.0879 6.20607C33.0879 3.98122 31.2881 2.1781 29.0677 2.1781C26.8473 2.1781 25.0475 3.98122 25.0475 6.20607C25.0478 8.4302 26.8476 10.2333 29.0677 10.2333Z" fill="#FDEDE2"/>
<path fill-rule="evenodd" clip-rule="evenodd" d="M116.393 28.5053H103.661V72.9079H145.775V35.14C142.651 34.5359 138.782 34.2329 133.92 34.2329H123.755C120.224 34.2329 117.236 31.7879 116.393 28.5053Z" fill="#E3B19B"/>
<path fill-rule="evenodd" clip-rule="evenodd" d="M116.255 27.845H102.673V72.139H144.787V34.9634C141.844 34.4772 138.282 34.2329 133.92 34.2329H123.755C119.991 34.2329 116.845 31.4549 116.255 27.845Z" fill="#FCE4D6"/>
<path fill-rule="evenodd" clip-rule="evenodd" d="M141.226 34.521V68.5725H106.233V31.4114H117.861C119.258 33.1302 121.384 34.2329 123.755 34.2329H133.92C136.656 34.2329 139.075 34.3295 141.226 34.521Z" fill="white"/>
<path d="M94.5572 28.5053H52.443V62.9065H94.5572V28.5053Z" fill="#E3B19B"/>
<path d="M93.5678 27.845H51.4537V62.2459H93.5678V27.845Z" fill="#FCE4D6"/>
<path d="M90.008 31.4114H55.0139V58.6795H90.008V31.4114Z" fill="white"/>
<path fill-rule="evenodd" clip-rule="evenodd" d="M48.3401 70.1288C48.6779 68.9085 48.8593 67.6252 48.8593 66.3006C48.8593 64.5511 48.5435 62.8721 47.9676 61.3173L72.7839 19.6931H99.0247L129.094 70.1288H48.3401Z" fill="url(#paint0_linear_19_71)"/>
<path fill-rule="evenodd" clip-rule="evenodd" d="M100.457 19.6931H71.1222L85.7894 11.0352L100.457 19.6931Z" fill="#E3B19B"/>
<path fill-rule="evenodd" clip-rule="evenodd" d="M71.2385 18.8475H100.34C100.804 18.8475 101.185 19.2276 101.185 19.6932C101.185 20.1583 100.804 20.5384 100.34 20.5384H71.2385C70.7749 20.5384 70.3941 20.1583 70.3941 19.6932C70.3941 19.228 70.7753 18.8475 71.2385 18.8475Z" fill="#E3B19B"/>
<path d="M86.4712 8.49286H85.1083V12.742H86.4712V8.49286Z" fill="#E3B19B"/>
<path fill-rule="evenodd" clip-rule="evenodd" d="M85.7894 19.035C93.3568 19.035 99.4912 19.7109 99.4912 20.5446C99.4912 21.3786 93.3568 22.0545 85.7894 22.0545C78.2224 22.0545 72.088 21.3786 72.088 20.5446C72.088 19.7109 78.2227 19.035 85.7894 19.035Z" fill="white"/>
<path fill-rule="evenodd" clip-rule="evenodd" d="M40.17 32.5938C40.17 32.3679 40.3528 32.1847 40.5787 32.1847C40.8041 32.1847 40.987 32.3679 40.987 32.5938V33.5567H41.9478C42.1732 33.5567 42.3564 33.7395 42.3564 33.9657C42.3564 34.1916 42.1736 34.3748 41.9478 34.3748H40.987V35.3377C40.987 35.5636 40.8041 35.7468 40.5787 35.7468C40.3532 35.7468 40.17 35.5636 40.17 35.3377V34.3748H39.2092C38.9837 34.3748 38.8005 34.1916 38.8005 33.9657C38.8005 33.7391 38.9834 33.5567 39.2092 33.5567H40.17V32.5938Z" fill="#E3B19B"/>
<path fill-rule="evenodd" clip-rule="evenodd" d="M27.5201 35.2059C27.0886 34.7741 26.4932 34.5066 25.8352 34.5066C25.1775 34.5066 24.5817 34.7741 24.1506 35.2059C23.7196 35.6378 23.4529 36.2344 23.4529 36.8936C23.4529 37.5528 23.7196 38.1497 24.1506 38.5816C24.5817 39.0135 25.1775 39.2806 25.8352 39.2806C26.4932 39.2806 27.0886 39.0135 27.5201 38.5816C27.9511 38.1497 28.2178 37.5528 28.2178 36.8936C28.2174 36.2344 27.9511 35.6378 27.5201 35.2059ZM27.0052 32.8403C27.3354 32.9355 27.6483 33.0701 27.9389 33.2381C28.237 33.4111 28.5119 33.6193 28.758 33.8571C28.8061 33.9031 28.8776 33.9103 28.9325 33.8785L30.0393 33.2381L30.0454 33.2345C30.109 33.2001 30.1809 33.1939 30.2474 33.2113C30.3153 33.2298 30.3768 33.2736 30.414 33.3391L30.4187 33.3467L31.1977 34.6984C31.2353 34.7632 31.2425 34.8389 31.2241 34.9073C31.206 34.9753 31.162 35.0365 31.0969 35.0742L31.0893 35.0785L29.9912 35.7135C29.9334 35.7471 29.907 35.8134 29.9222 35.8749C29.9627 36.0389 29.9938 36.2072 30.0147 36.3792C30.035 36.5471 30.0454 36.7187 30.0454 36.8936C30.0454 37.0684 30.035 37.2396 30.0147 37.4076C29.9938 37.5803 29.9623 37.7486 29.9222 37.9119C29.9056 37.9799 29.9392 38.0487 29.9995 38.0784L31.0973 38.713V38.7134C31.1623 38.751 31.2064 38.8122 31.2245 38.8802C31.2429 38.9487 31.2353 39.0236 31.1981 39.0891L30.4147 40.4484L30.4144 40.4481C30.3768 40.5136 30.3157 40.5574 30.2478 40.5758C30.1798 40.5943 30.1051 40.5867 30.04 40.5491L30.0321 40.5451L28.9329 39.909C28.8754 39.8761 28.805 39.8862 28.7591 39.9304C28.513 40.1679 28.238 40.3764 27.9399 40.5487C27.6476 40.7181 27.3325 40.8535 27.0001 40.9491C26.9358 40.9675 26.8939 41.0258 26.8939 41.0902V42.3696C26.8939 42.4445 26.8632 42.5133 26.8133 42.5632C26.7634 42.6132 26.6951 42.644 26.62 42.644H25.0529C24.9777 42.644 24.9094 42.6132 24.8596 42.5632C24.8101 42.5133 24.779 42.4445 24.779 42.3696V41.0899C24.779 41.0207 24.7309 40.9628 24.6663 40.9473C24.336 40.8517 24.0231 40.7174 23.7326 40.5487C23.4345 40.3764 23.1595 40.1679 22.9131 39.93C22.8628 39.8823 22.7873 39.8768 22.7313 39.9137L21.6318 40.5498C21.5667 40.5871 21.492 40.5947 21.4233 40.5762C21.3554 40.5581 21.2943 40.5143 21.2567 40.4484L21.252 40.4412L20.473 39.0891C20.4354 39.0239 20.4282 38.9494 20.4463 38.881C20.4643 38.8129 20.5084 38.7517 20.5731 38.7141L21.6791 38.0741C21.7369 38.0411 21.7633 37.9745 21.7481 37.9126C21.708 37.7493 21.6766 37.5807 21.656 37.4083C21.6354 37.2404 21.6249 37.0688 21.6249 36.8943C21.6249 36.7198 21.6354 36.5479 21.656 36.3799C21.677 36.2072 21.708 36.0396 21.7481 35.8756C21.7648 35.8076 21.7312 35.7395 21.6712 35.7098L20.5731 35.0749C20.5084 35.0372 20.4647 34.9761 20.4463 34.908C20.4278 34.8396 20.4354 34.7647 20.473 34.6999L20.4773 34.6919L21.2564 33.3402C21.2939 33.275 21.355 33.2312 21.4229 33.2124C21.4912 33.1943 21.566 33.2015 21.6311 33.2392L22.7378 33.8796C22.7967 33.914 22.8701 33.9024 22.9156 33.8553C23.1609 33.6189 23.4348 33.4119 23.7315 33.2396C24.0238 33.0705 24.3389 32.9355 24.6713 32.8399C24.7356 32.8214 24.7776 32.7624 24.7776 32.6987V31.4194C24.7776 31.3438 24.8083 31.2757 24.8581 31.2257C24.908 31.1762 24.9766 31.145 25.0514 31.145H26.6185C26.6937 31.145 26.762 31.1762 26.8119 31.2257C26.8617 31.2757 26.8924 31.3441 26.8924 31.4194V32.6987C26.8928 32.7664 26.9409 32.8251 27.0052 32.8403Z" fill="#E3B19B"/>
<path fill-rule="evenodd" clip-rule="evenodd" d="M234.26 78.0048C233.744 77.4871 233.125 77.0698 232.437 76.7841C231.775 76.5094 231.05 76.3577 230.291 76.3577C229.533 76.3577 228.808 76.5094 228.146 76.7841C227.457 77.0701 226.839 77.4875 226.322 78.0048C225.806 78.5217 225.389 79.1415 225.104 79.8311C224.83 80.4946 224.678 81.2208 224.678 81.981C224.678 82.7409 224.83 83.467 225.104 84.1298C225.389 84.8202 225.806 85.4399 226.322 85.9569C226.838 86.4745 227.457 86.8915 228.145 87.1772C228.807 87.4526 229.532 87.6043 230.291 87.6043C231.05 87.6043 231.775 87.4527 232.437 87.1779C233.125 86.8923 233.743 86.4745 234.26 85.9569C234.776 85.4399 235.193 84.8198 235.478 84.1306C235.752 83.467 235.904 82.7409 235.904 81.9807C235.904 81.2205 235.752 80.4946 235.478 79.8307C235.194 79.1415 234.777 78.5217 234.26 78.0048ZM232.24 77.2642C232.861 77.5219 233.422 77.9016 233.893 78.373C234.364 78.8446 234.743 79.4061 234.999 80.0287C235.248 80.6286 235.385 81.2885 235.385 81.981C235.385 82.6735 235.248 83.3331 234.999 83.9333C234.742 84.5559 234.363 85.1174 233.893 85.5887C233.422 86.0604 232.861 86.4398 232.24 86.6975C231.641 86.9462 230.983 87.0834 230.291 87.0834C229.601 87.0834 228.943 86.9462 228.344 86.6975C227.722 86.4394 227.161 86.06 226.69 85.5887C226.219 85.1174 225.841 84.5556 225.584 83.9333C225.335 83.3334 225.198 82.6739 225.198 81.981C225.198 81.2885 225.335 80.6289 225.584 80.0287C225.841 79.4061 226.219 78.8446 226.69 78.373C227.161 77.9016 227.722 77.5219 228.343 77.2642C228.942 77.0158 229.6 76.8786 230.291 76.8786C230.983 76.8786 231.641 77.0158 232.24 77.2642ZM232.86 73.1261C233.212 73.2279 233.557 73.352 233.895 73.4957C234.237 73.6416 234.569 73.8081 234.888 73.9928C235.212 74.1806 235.525 74.3884 235.824 74.6143C236.125 74.8413 236.41 75.0856 236.679 75.3456C236.774 75.4371 236.893 75.4907 237.015 75.5056C237.14 75.5208 237.269 75.4958 237.381 75.4303C238.205 74.9535 239.072 74.4815 239.879 73.9848C239.918 73.9645 239.96 73.9519 240.001 73.9472C240.047 73.9421 240.094 73.9457 240.139 73.958C240.184 73.9703 240.228 73.991 240.265 74.0195C240.301 74.0467 240.332 74.0822 240.356 74.1234C240.957 75.0342 241.56 76.2111 242.116 77.1769C242.14 77.2182 242.155 77.2623 242.16 77.3062C242.166 77.3528 242.163 77.4021 242.15 77.4491C242.138 77.4947 242.117 77.5378 242.088 77.5755C242.061 77.6113 242.026 77.6432 241.985 77.6671C241.243 78.1583 240.288 78.6492 239.502 79.1042C239.387 79.1704 239.302 79.27 239.255 79.3826C239.238 79.422 239.225 79.4633 239.217 79.5053L239.166 79.5227L239.223 79.7551C239.268 79.9375 239.308 80.12 239.341 80.3013C239.373 80.478 239.401 80.663 239.425 80.8563C239.448 81.0445 239.465 81.231 239.476 81.4152C239.487 81.5955 239.493 81.7848 239.493 81.9814C239.493 82.1779 239.487 82.3662 239.476 82.5465C239.465 82.7311 239.448 82.9179 239.425 83.1065C239.401 83.2991 239.373 83.484 239.341 83.6607C239.308 83.8424 239.268 84.0252 239.223 84.2077C239.19 84.3431 239.206 84.4788 239.26 84.5961C239.314 84.7127 239.406 84.8108 239.526 84.8723L241.725 86.1437L241.724 86.1447L241.985 86.2953C242.026 86.3192 242.061 86.3507 242.088 86.3869C242.117 86.4242 242.138 86.4676 242.15 86.5133C242.163 86.561 242.166 86.6095 242.16 86.6555C242.155 86.7 242.14 86.7442 242.116 86.7855L240.489 89.6116L240.488 89.6109L240.356 89.8393C240.332 89.8802 240.301 89.9157 240.265 89.9428C240.228 89.9711 240.184 89.9921 240.139 90.0044C240.092 90.0171 240.044 90.0207 239.997 90.0145C239.953 90.0091 239.91 89.9946 239.868 89.9707C239.081 89.4751 238.192 89.002 237.38 88.5321C237.264 88.4655 237.137 88.4424 237.016 88.4576C236.891 88.4724 236.773 88.5271 236.68 88.6165L236.679 88.6176C236.41 88.8775 236.124 89.1218 235.824 89.3492C235.524 89.5747 235.212 89.7821 234.889 89.9696C234.567 90.1561 234.233 90.3233 233.888 90.4699C233.549 90.6144 233.198 90.7392 232.835 90.8435C232.708 90.8801 232.602 90.9561 232.527 91.0553C232.452 91.1552 232.408 91.2801 232.408 91.4104L232.408 94.2854C232.408 94.3335 232.398 94.3795 232.381 94.4201C232.363 94.4628 232.336 94.503 232.302 94.5359C232.27 94.5696 232.23 94.5967 232.187 94.6148C232.146 94.6322 232.1 94.6409 232.052 94.6409H228.531C228.483 94.6409 228.437 94.6322 228.396 94.6148C228.353 94.5963 228.313 94.5696 228.28 94.5366C228.247 94.5026 228.22 94.4628 228.202 94.4201C228.185 94.3795 228.176 94.3335 228.176 94.2854V91.4104C228.176 91.2736 228.128 91.1472 228.048 91.0455C227.967 90.9423 227.853 90.867 227.723 90.8363C227.372 90.7353 227.027 90.6111 226.689 90.467C226.346 90.3208 226.014 90.1546 225.695 89.97C225.371 89.7818 225.058 89.5743 224.76 89.3484C224.459 89.1215 224.173 88.8771 223.904 88.6172C223.805 88.5209 223.679 88.4673 223.551 88.4558C223.42 88.4438 223.286 88.4757 223.173 88.5502L220.716 89.9711C220.676 89.9946 220.632 90.0091 220.587 90.0145C220.54 90.0207 220.492 90.0171 220.445 90.0044C220.399 89.9921 220.356 89.9711 220.318 89.9428C220.283 89.9157 220.252 89.8802 220.227 89.8393C219.644 88.8196 219.051 87.8045 218.467 86.7855C218.444 86.7442 218.429 86.7 218.423 86.6555C218.417 86.6095 218.421 86.5607 218.434 86.5136C218.446 86.4676 218.467 86.4242 218.495 86.3869C218.522 86.35 218.556 86.3196 218.596 86.2957L221.082 84.8586C221.197 84.7919 221.281 84.6935 221.33 84.5802C221.343 84.5494 221.353 84.5175 221.361 84.4853L221.426 84.4723L221.36 84.208C221.315 84.0256 221.276 83.8431 221.242 83.6618C221.21 83.4848 221.182 83.2994 221.159 83.1068C221.136 82.9186 221.119 82.7314 221.108 82.5468C221.097 82.3666 221.091 82.1783 221.091 81.9817C221.091 81.7852 221.097 81.5969 221.108 81.417C221.118 81.2324 221.136 81.046 221.159 80.8574C221.182 80.6626 221.211 80.4769 221.242 80.3013C221.276 80.1203 221.315 79.9379 221.36 79.7558C221.394 79.6193 221.377 79.4832 221.323 79.3667C221.268 79.2505 221.176 79.1523 221.059 79.0912L218.597 77.6682C218.557 77.645 218.523 77.6139 218.495 77.5769C218.467 77.5407 218.446 77.4973 218.434 77.4502C218.421 77.4032 218.417 77.3547 218.423 77.3083C218.429 77.2638 218.444 77.2193 218.467 77.1784C219.068 76.2831 219.67 75.0875 220.227 74.1245C220.251 74.0833 220.283 74.0481 220.318 74.0206C220.356 73.992 220.399 73.9714 220.445 73.9591C220.492 73.9464 220.54 73.9424 220.586 73.9482C220.63 73.9537 220.674 73.9685 220.716 73.9928L223.203 75.4303C223.319 75.499 223.451 75.5219 223.576 75.5045C223.7 75.4878 223.819 75.4303 223.912 75.3387C224.182 75.0784 224.466 74.8351 224.762 74.6118C225.058 74.3884 225.37 74.1817 225.696 73.9935C226.016 73.8078 226.35 73.6402 226.695 73.4932C227.034 73.3491 227.386 73.2239 227.748 73.1196C227.875 73.0834 227.981 73.007 228.056 72.9082C228.132 72.8083 228.175 72.6834 228.175 72.5531L228.176 69.6784C228.176 69.6299 228.185 69.5843 228.202 69.5434C228.22 69.5007 228.247 69.4612 228.28 69.4276C228.313 69.3936 228.353 69.3668 228.396 69.3487C228.437 69.3316 228.483 69.3219 228.531 69.3219H232.052C232.1 69.3219 232.146 69.3313 232.187 69.3487C232.23 69.3668 232.27 69.3936 232.303 69.4265C232.368 69.4924 232.408 69.5811 232.408 69.6781V72.5527C232.408 72.6903 232.455 72.817 232.534 72.9176C232.616 73.0204 232.73 73.0957 232.86 73.1261ZM234.098 73.0175C234.46 73.1717 234.811 73.348 235.148 73.5435C235.492 73.7426 235.823 73.9624 236.137 74.1995C236.452 74.4377 236.753 74.6958 237.038 74.9712C237.049 74.9817 237.063 74.9875 237.078 74.9893C237.093 74.9912 237.108 74.9883 237.121 74.981C237.957 74.4978 238.794 74.0159 239.629 73.5298C239.728 73.4758 239.834 73.4432 239.943 73.4313C240.054 73.4186 240.165 73.4273 240.272 73.4556C240.382 73.4852 240.487 73.5363 240.579 73.6065C240.668 73.6746 240.745 73.7611 240.804 73.8632C241.41 74.8464 241.985 75.9114 242.564 76.917C242.624 77.0187 242.659 77.1299 242.673 77.2414C242.688 77.3576 242.68 77.4741 242.651 77.5834C242.622 77.6935 242.57 77.7981 242.5 77.8908C242.432 77.9802 242.346 78.0569 242.244 78.1159C241.445 78.6112 240.577 79.0803 239.759 79.5534C239.746 79.5614 239.737 79.573 239.731 79.5864C239.725 79.6001 239.724 79.6157 239.727 79.6302L239.784 79.8626L239.781 79.8633C239.806 79.9766 239.829 80.091 239.85 80.2072C239.887 80.4067 239.917 80.6029 239.94 80.7947C239.963 80.9852 239.98 81.1821 239.993 81.3848C240.005 81.5882 240.012 81.787 240.012 81.9807C240.012 82.1743 240.005 82.3731 239.993 82.5761C239.98 82.7789 239.963 82.9758 239.94 83.1669C239.917 83.3588 239.887 83.5546 239.85 83.7534C239.814 83.9517 239.772 84.1443 239.726 84.3311C239.722 84.347 239.724 84.363 239.731 84.3764C239.738 84.3919 239.748 84.4035 239.761 84.41C240.675 84.8991 241.601 85.4732 242.504 85.996L242.472 86.0361L242.5 86.0709C242.57 86.1632 242.621 86.2682 242.65 86.3782C242.68 86.4879 242.688 86.6041 242.673 86.7203C242.659 86.8322 242.623 86.9426 242.564 87.0447L240.672 90.3269L240.637 90.3056C240.618 90.3229 240.599 90.3396 240.579 90.3548C240.487 90.425 240.382 90.4764 240.272 90.5061C240.163 90.5351 240.047 90.5438 239.931 90.5289C239.822 90.5152 239.715 90.4808 239.616 90.425C238.788 89.9848 237.936 89.4534 237.119 88.9806C237.107 88.9738 237.093 88.972 237.078 88.9734C237.062 88.9752 237.048 88.9817 237.037 88.9922C236.752 89.2677 236.451 89.5255 236.136 89.7633C235.822 90 235.492 90.2198 235.148 90.4189C234.808 90.6158 234.455 90.7921 234.091 90.9478C233.729 91.1016 233.357 91.2341 232.977 91.3434C232.962 91.3474 232.949 91.3565 232.941 91.3677C232.932 91.3804 232.926 91.3952 232.927 91.4097V94.2847C232.927 94.402 232.903 94.5153 232.86 94.6192C232.814 94.727 232.749 94.8237 232.669 94.9037C232.588 94.9844 232.491 95.0496 232.385 95.0945C232.282 95.1372 232.168 95.1614 232.051 95.1614H228.531C228.413 95.1614 228.3 95.1375 228.196 95.0945C228.09 95.0496 227.994 94.9841 227.912 94.9037C227.832 94.8237 227.767 94.727 227.722 94.6192C227.679 94.5153 227.655 94.402 227.655 94.2847V91.4097C227.655 91.3923 227.65 91.3771 227.641 91.3662C227.632 91.355 227.619 91.3456 227.602 91.3423L227.591 91.3384C227.209 91.2276 226.839 91.0962 226.485 90.9449C226.123 90.7903 225.772 90.6144 225.435 90.4189C225.09 90.2198 224.76 90.0004 224.446 89.7629C224.131 89.5247 223.83 89.2666 223.544 88.9911C223.532 88.9799 223.518 88.9727 223.503 88.972C223.488 88.9705 223.472 88.9741 223.459 88.9832L220.974 90.42C220.872 90.4786 220.762 90.5152 220.651 90.5289C220.536 90.5438 220.419 90.5354 220.31 90.5061C220.2 90.4764 220.096 90.4258 220.003 90.3548C219.917 90.2886 219.841 90.2049 219.783 90.1057C219.13 89.0541 218.513 87.9023 217.891 86.8224L217.924 86.8025C217.917 86.775 217.913 86.7475 217.909 86.7192C217.895 86.6038 217.903 86.4876 217.932 86.3782C217.962 86.2682 218.013 86.1632 218.083 86.0709C218.151 85.9811 218.237 85.904 218.339 85.8454L220.824 84.4075C220.837 84.4003 220.847 84.3887 220.852 84.3753C220.858 84.3615 220.859 84.3456 220.856 84.3308L220.791 84.0669L220.795 84.0665C220.773 83.9641 220.752 83.8598 220.733 83.7545C220.696 83.555 220.666 83.3591 220.643 83.1669C220.619 82.9758 220.602 82.7789 220.589 82.5761C220.578 82.3731 220.571 82.1747 220.571 81.9807C220.571 81.787 220.578 81.5882 220.589 81.3852C220.601 81.1824 220.619 80.9852 220.643 80.7929C220.666 80.6025 220.696 80.407 220.733 80.2061C220.769 80.0088 220.811 79.8163 220.857 79.6298C220.86 79.615 220.858 79.5983 220.852 79.5835C220.845 79.5701 220.834 79.5581 220.82 79.5513L218.338 78.1156C218.235 78.0562 218.15 77.9787 218.083 77.8901C218.012 77.7967 217.961 77.6917 217.932 77.5831C217.903 77.4738 217.895 77.3576 217.909 77.2421C217.923 77.1331 217.958 77.0252 218.014 76.9246C218.606 75.827 219.284 74.7204 219.91 73.6344L219.945 73.6557C219.964 73.6384 219.984 73.6217 220.004 73.6061C220.096 73.5356 220.201 73.4845 220.311 73.4552C220.42 73.4262 220.536 73.4175 220.651 73.4324C220.763 73.4465 220.873 73.4823 220.974 73.5399L221.158 73.6456L221.158 73.6474L223.462 74.9807C223.476 74.9883 223.492 74.9912 223.507 74.9893C223.521 74.9875 223.535 74.9803 223.546 74.9698L223.552 74.9633C223.834 74.6914 224.135 74.4348 224.452 74.1955C224.767 73.9576 225.095 73.739 225.435 73.5428C225.775 73.3459 226.128 73.1689 226.492 73.0143C226.854 72.8604 227.226 72.7276 227.606 72.6186C227.621 72.6139 227.633 72.6052 227.642 72.594C227.651 72.5813 227.657 72.5661 227.656 72.552V69.6774C227.656 69.5601 227.68 69.4464 227.724 69.3429C227.768 69.235 227.834 69.138 227.915 69.058C227.995 68.9773 228.091 68.9117 228.198 68.8676C228.301 68.8241 228.415 68.8006 228.532 68.8006H232.053C232.17 68.8006 232.283 68.8241 232.387 68.8676C232.493 68.9117 232.59 68.9776 232.671 69.058C232.829 69.2169 232.928 69.4359 232.928 69.677V72.5516C232.928 72.5679 232.934 72.5831 232.942 72.5958C232.951 72.6067 232.965 72.6157 232.981 72.6193L232.992 72.6233C233.373 72.7348 233.743 72.8662 234.098 73.0175Z" fill="#E3B19B"/>
<path fill-rule="evenodd" clip-rule="evenodd" d="M207.957 93.6085C207.526 93.177 206.93 92.9098 206.272 92.9098C205.615 92.9098 205.019 93.1766 204.588 93.6085C204.157 94.0403 203.89 94.6373 203.89 95.2961C203.89 95.9549 204.157 96.5522 204.588 96.9841C205.019 97.4156 205.614 97.6831 206.272 97.6831C206.93 97.6831 207.526 97.416 207.957 96.9841C208.388 96.5522 208.655 95.9549 208.655 95.2961C208.655 94.6373 208.388 94.0403 207.957 93.6085ZM207.443 91.2431C207.773 91.3387 208.086 91.473 208.376 91.641C208.674 91.8144 208.949 92.0225 209.196 92.26C209.244 92.3067 209.315 92.3132 209.37 92.2814L210.477 91.641L210.483 91.637C210.547 91.6026 210.619 91.5965 210.685 91.6138C210.753 91.6323 210.814 91.6761 210.852 91.7413L210.857 91.7492L211.635 93.1006C211.673 93.1657 211.68 93.241 211.662 93.3091C211.644 93.3775 211.6 93.4383 211.534 93.4763L211.527 93.4807L210.429 94.116C210.371 94.1496 210.345 94.2159 210.36 94.2774H210.359C210.4 94.4411 210.431 94.6098 210.452 94.7824C210.473 94.9497 210.483 95.122 210.483 95.2961C210.483 95.4706 210.473 95.6422 210.452 95.8101C210.431 95.9828 210.401 96.1511 210.359 96.3144C210.343 96.3828 210.377 96.4513 210.437 96.4809L211.535 97.1155L211.534 97.1159C211.6 97.1535 211.644 97.2147 211.662 97.2831C211.68 97.3512 211.673 97.4265 211.635 97.4916L210.852 98.8509C210.814 98.9165 210.753 98.9603 210.685 98.9784C210.617 98.9972 210.542 98.9892 210.477 98.9519L210.469 98.9476L209.37 98.3116C209.312 98.2786 209.241 98.2888 209.196 98.3329C208.949 98.5704 208.675 98.7789 208.376 98.9512C208.084 99.1206 207.769 99.256 207.436 99.3512C207.372 99.3701 207.33 99.4287 207.33 99.4928V100.772C207.33 100.847 207.299 100.915 207.249 100.965C207.199 101.015 207.131 101.046 207.056 101.046H205.489C205.414 101.046 205.345 101.015 205.295 100.965C205.246 100.915 205.215 100.847 205.215 100.772V99.4928C205.215 99.4233 205.167 99.365 205.102 99.3494C204.772 99.2538 204.459 99.1196 204.168 98.9509C203.871 98.7785 203.595 98.57 203.349 98.3326C203.299 98.2841 203.223 98.279 203.167 98.3159L202.068 98.9519C202.003 98.9896 201.928 98.9968 201.86 98.978C201.791 98.9599 201.731 98.9161 201.693 98.8506L201.688 98.843L200.909 97.4909C200.872 97.4257 200.865 97.3508 200.883 97.2828C200.901 97.2143 200.945 97.1535 201.01 97.1155L202.116 96.4759C202.173 96.4422 202.199 96.3759 202.185 96.314C202.144 96.1508 202.113 95.9821 202.092 95.8098C202.072 95.6418 202.061 95.4702 202.061 95.2957C202.061 95.1213 202.072 94.9493 202.092 94.7813C202.113 94.6094 202.144 94.4407 202.185 94.2771C202.201 94.209 202.168 94.141 202.107 94.1109L201.01 93.476C200.945 93.438 200.901 93.3771 200.882 93.3087C200.864 93.2403 200.872 93.1657 200.909 93.1006L200.913 93.0926L201.692 91.7413C201.73 91.6757 201.791 91.6319 201.859 91.6138C201.928 91.5954 202.002 91.603 202.067 91.6403V91.6406L203.174 92.281C203.233 92.3154 203.306 92.3038 203.352 92.2568C203.597 92.0207 203.871 91.8129 204.168 91.641C204.46 91.4719 204.775 91.3369 205.107 91.2417C205.172 91.2229 205.214 91.1646 205.214 91.1002V89.8212C205.214 89.7459 205.245 89.6771 205.295 89.6275C205.344 89.5776 205.413 89.5468 205.488 89.5468H207.055C207.131 89.5468 207.199 89.5776 207.249 89.6275C207.298 89.6775 207.329 89.7459 207.329 89.8212V91.1002C207.33 91.1689 207.378 91.2279 207.443 91.2431Z" fill="#E3B19B"/>
<path fill-rule="evenodd" clip-rule="evenodd" d="M66.2637 10.9012C66.2637 10.675 66.4465 10.4922 66.6723 10.4922C66.8982 10.4922 67.081 10.675 67.081 10.9012V11.8638H68.0418C68.2676 11.8638 68.4505 12.047 68.4505 12.2732C68.4505 12.4991 68.2676 12.6823 68.0418 12.6823H67.081V13.6452C67.081 13.8711 66.8982 14.0543 66.6723 14.0543C66.4465 14.0543 66.2637 13.8711 66.2637 13.6452V12.6823H65.3029C65.0774 12.6823 64.8942 12.4991 64.8942 12.2732C64.8942 12.047 65.0771 11.8638 65.3029 11.8638H66.2637V10.9012Z" fill="#E3B19B"/>
<path fill-rule="evenodd" clip-rule="evenodd" d="M112.9 0.889041C112.9 0.663153 113.083 0.47998 113.308 0.47998C113.534 0.47998 113.717 0.663153 113.717 0.889041V1.85196H114.678C114.903 1.85196 115.086 2.03513 115.086 2.26102C115.086 2.48727 114.903 2.67044 114.678 2.67044H113.717V3.633C113.717 3.85925 113.534 4.04242 113.308 4.04242C113.083 4.04242 112.9 3.85925 112.9 3.633V2.67044H111.939C111.713 2.67044 111.53 2.48727 111.53 2.26102C111.53 2.03513 111.713 1.85196 111.939 1.85196H112.9V0.889041Z" fill="#E3B19B"/>
<path fill-rule="evenodd" clip-rule="evenodd" d="M174.526 51.5049C174.526 51.2791 174.709 51.0959 174.935 51.0959C175.161 51.0959 175.343 51.2794 175.343 51.5049V52.4679H176.304C176.53 52.4679 176.713 52.651 176.713 52.8769C176.713 53.1032 176.53 53.2867 176.304 53.2867H175.343V54.2489C175.343 54.4755 175.161 54.6587 174.935 54.6587C174.709 54.6587 174.526 54.4755 174.526 54.2489V53.2867H173.566C173.34 53.2867 173.157 53.1035 173.157 52.8769C173.157 52.651 173.34 52.4679 173.566 52.4679H174.526V51.5049Z" fill="#E3B19B"/>
<path fill-rule="evenodd" clip-rule="evenodd" d="M236.708 102.121C236.708 101.895 236.891 101.711 237.117 101.711C237.342 101.711 237.525 101.895 237.525 102.121V103.083H238.486C238.711 103.083 238.895 103.267 238.895 103.493C238.895 103.718 238.711 103.902 238.486 103.902H237.525V104.865C237.525 105.09 237.342 105.274 237.117 105.274C236.891 105.274 236.708 105.09 236.708 104.865V103.902H235.747C235.521 103.902 235.338 103.718 235.338 103.493C235.338 103.267 235.521 103.083 235.747 103.083H236.708V102.121Z" fill="#E3B19B"/>
<path fill-rule="evenodd" clip-rule="evenodd" d="M214.5 133.269C214.5 133.043 214.683 132.859 214.909 132.859C215.134 132.859 215.317 133.043 215.317 133.269V134.231H216.278C216.504 134.231 216.687 134.414 216.687 134.641C216.687 134.866 216.504 135.05 216.278 135.05H215.317V136.013C215.317 136.238 215.134 136.422 214.909 136.422C214.683 136.422 214.5 136.238 214.5 136.013V135.05H213.539C213.314 135.05 213.131 134.866 213.131 134.641C213.131 134.414 213.314 134.231 213.539 134.231H214.5V133.269Z" fill="#E3B19B"/>
<path fill-rule="evenodd" clip-rule="evenodd" d="M19.6278 128.819C19.6278 128.593 19.8107 128.409 20.0365 128.409C20.262 128.409 20.4448 128.593 20.4448 128.819V129.781H21.4056C21.6314 129.781 21.8143 129.965 21.8143 130.191C21.8143 130.417 21.6314 130.6 21.4056 130.6H20.4448V131.563C20.4448 131.789 20.262 131.972 20.0365 131.972C19.811 131.972 19.6278 131.789 19.6278 131.563V130.6H18.667C18.4416 130.6 18.2584 130.417 18.2584 130.191C18.2584 129.965 18.4412 129.781 18.667 129.781H19.6278V128.819Z" fill="#E3B19B"/>
<path fill-rule="evenodd" clip-rule="evenodd" d="M8.52369 74.8663C8.52369 74.6397 8.70652 74.4572 8.93236 74.4572C9.15783 74.4572 9.34103 74.64 9.34103 74.8663V75.8285H10.3018C10.5276 75.8285 10.7105 76.0116 10.7105 76.2383C10.7105 76.4641 10.5276 76.6473 10.3018 76.6473H9.34103V77.6099C9.34103 77.8358 9.15819 78.0193 8.93236 78.0193C8.70652 78.0193 8.52369 77.8358 8.52369 77.6099V76.6473H7.5629C7.33707 76.6473 7.15424 76.4638 7.15424 76.2383C7.15424 76.0116 7.33707 75.8285 7.5629 75.8285H8.52369V74.8663Z" fill="#E3B19B"/>
<path fill-rule="evenodd" clip-rule="evenodd" d="M19.5371 16.2009C19.5371 15.9743 19.72 15.7911 19.9458 15.7911C20.1716 15.7911 20.3545 15.9743 20.3545 16.2009V17.1631H21.3153C21.5411 17.1631 21.7239 17.3463 21.7239 17.5729C21.7239 17.7988 21.5411 17.982 21.3153 17.982H20.3545V18.9449C20.3545 19.1704 20.1716 19.3539 19.9458 19.3539C19.7203 19.3539 19.5371 19.1704 19.5371 18.9449V17.982H18.5764C18.3509 17.982 18.1677 17.7988 18.1677 17.5729C18.1677 17.3463 18.3505 17.1631 18.5764 17.1631H19.5371V16.2009Z" fill="#E3B19B"/>
<path fill-rule="evenodd" clip-rule="evenodd" d="M138.034 26.2128C138.034 25.9869 138.216 25.8037 138.442 25.8037C138.668 25.8037 138.851 25.9869 138.851 26.2128V27.1753H139.811C140.037 27.1753 140.22 27.3589 140.22 27.5844C140.22 27.811 140.037 27.9934 139.811 27.9934H138.851V28.9564C138.851 29.1826 138.668 29.3654 138.442 29.3654C138.216 29.3654 138.034 29.1826 138.034 28.9564V27.9934H137.073C136.847 27.9934 136.664 27.8106 136.664 27.5844C136.664 27.3589 136.847 27.1753 137.073 27.1753H138.034V26.2128Z" fill="#E3B19B"/>
<path fill-rule="evenodd" clip-rule="evenodd" d="M104.278 28.5053H103.661V70.1288H129.094L104.278 28.5053Z" fill="#F1D3C4"/>
<path fill-rule="evenodd" clip-rule="evenodd" d="M103.885 27.845H102.673V70.1288H129.094L103.885 27.845Z" fill="#FDF1E8"/>
<path fill-rule="evenodd" clip-rule="evenodd" d="M128.166 68.5725H106.233V31.7828L128.166 68.5725Z" fill="white"/>
<path fill-rule="evenodd" clip-rule="evenodd" d="M94.5572 28.5053H67.5302L52.443 53.8106V62.9065H94.5572V28.5053Z" fill="#F1D3C4"/>
<path fill-rule="evenodd" clip-rule="evenodd" d="M93.5678 27.845H67.924L51.4537 55.4696V62.2459H93.5678V27.845Z" fill="#FDF1E8"/>
<path fill-rule="evenodd" clip-rule="evenodd" d="M90.008 31.4114V58.6795H55.0139V49.4984L65.7975 31.4114H90.008Z" fill="white"/>
<path fill-rule="evenodd" clip-rule="evenodd" d="M94.0871 24.8274H109.274C110.377 24.8274 111.28 25.7313 111.28 26.8369V35.123V35.7359V41.0106C111.28 41.1033 111.227 41.1825 111.141 41.218C111.056 41.2531 110.962 41.2347 110.897 41.1692L107.48 37.7454H94.0871C92.9839 37.7454 92.0817 36.8414 92.0817 35.7359V26.8369C92.0813 25.7313 92.9839 24.8274 94.0871 24.8274Z" fill="#E9695B"/>
<path fill-rule="evenodd" clip-rule="evenodd" d="M97.2057 32.3928C97.8142 32.3928 98.3103 31.8958 98.3103 31.2866C98.3103 30.677 97.8142 30.1799 97.2057 30.1799C96.5972 30.1799 96.1011 30.677 96.1011 31.2866C96.1011 31.8958 96.5972 32.3928 97.2057 32.3928Z" fill="white"/>
<path fill-rule="evenodd" clip-rule="evenodd" d="M101.68 32.3928C102.289 32.3928 102.785 31.8958 102.785 31.2866C102.785 30.677 102.289 30.1799 101.68 30.1799C101.072 30.1799 100.576 30.677 100.576 31.2866C100.576 31.8958 101.072 32.3928 101.68 32.3928Z" fill="white"/>
<path fill-rule="evenodd" clip-rule="evenodd" d="M106.155 32.3928C106.764 32.3928 107.26 31.8958 107.26 31.2866C107.26 30.677 106.764 30.1799 106.155 30.1799C105.547 30.1799 105.051 30.677 105.051 31.2866C105.051 31.8958 105.547 32.3928 106.155 32.3928Z" fill="white"/>
<path fill-rule="evenodd" clip-rule="evenodd" d="M121.29 64.8345C121.29 64.8345 121.865 66.2275 121.558 68.0998C121.385 69.1583 115.083 86.367 114.668 87.4823C114.254 88.5977 112.375 90.5087 110.445 90.8381C109.661 90.9717 104.119 92.0269 101.683 92.4055C99.5255 92.7411 98.8303 90.6336 97.2798 89.397C99.6426 88.8091 108.822 85.1684 109.245 85.0392C109.75 84.885 110.159 84.6486 110.414 83.7335C110.668 82.8183 112.704 73.836 112.704 73.836C112.704 73.836 114.109 68.5718 115.481 67.6592C116.726 66.8302 118.647 64.9192 121.29 64.8345Z" fill="#503621"/>
<path fill-rule="evenodd" clip-rule="evenodd" d="M115.017 100.21L114.141 107.917C114.141 107.917 115.916 132.129 116.366 136.334C116.625 138.753 117.131 145.283 117.515 150.397H125.822L126.155 102.885L115.017 100.21Z" fill="#1A1A18"/>
<path fill-rule="evenodd" clip-rule="evenodd" d="M120.227 106.894L119.794 109.618L121.258 150.397H130.761C131.488 143.572 132.587 133.503 133.158 129.5C134.057 123.191 134.366 114.423 134.362 112.349C134.357 110.274 131.958 107.194 131.133 106.969C130.309 106.744 120.227 106.894 120.227 106.894Z" fill="#302D28"/>
<path fill-rule="evenodd" clip-rule="evenodd" d="M124.912 62.5279L120.189 65.9072C120.189 65.9072 116.82 79.1227 116.807 79.7229C116.794 80.3235 115.504 87.6116 115.504 87.6116C115.504 87.6116 120.227 89.4897 120.902 87.6865C121.576 85.8841 129.147 72.9665 129.522 70.939C129.897 68.911 128.997 64.1048 128.548 63.5788C128.098 63.0535 124.912 62.5279 124.912 62.5279Z" fill="#FCE4D6"/>
<path fill-rule="evenodd" clip-rule="evenodd" d="M123.186 64.6137L122.938 63.1563L123.322 62.286L123.943 59.6575L132.788 54.2598L129.13 63.5624L123.186 64.6137Z" fill="#E9695B"/>
<path fill-rule="evenodd" clip-rule="evenodd" d="M124.057 64.6137C124.057 64.6137 124.753 65.1868 124.92 65.3653C125.088 65.5437 126.824 69.2423 127.065 69.5804L131.15 64.9993C131.15 64.9993 130.899 62.2394 130.834 62.1174C130.769 61.995 129.907 61.2899 129.907 61.2899C129.597 62.5391 126.303 63.2512 124.057 64.6137Z" fill="white"/>
<path fill-rule="evenodd" clip-rule="evenodd" d="M121.407 64.6152C119.39 65.177 115.638 67.3367 114.677 69.5018C112.474 74.4645 114.757 79.9828 114.757 89.8857C114.757 91.1621 112.035 109.693 111.998 109.956C111.96 110.219 112.11 110.519 112.485 110.519C112.86 110.519 118.862 99.7462 119.199 98.8448C119.537 97.9438 118.861 82.8918 118.861 82.8918L119.495 67.7483L121.407 64.6152Z" fill="#503621"/>
<path fill-rule="evenodd" clip-rule="evenodd" d="M132.648 66.5432C132.648 66.5432 136.765 67.9369 136.99 68.3126C137.215 68.6884 133.064 94.9732 132.989 95.9495C132.914 96.9258 136.138 111.308 136.25 111.683C136.25 111.683 136.269 111.833 136.156 112.059C136.044 112.284 135.782 112.415 135.651 112.51C135.519 112.603 123.302 110.043 122.102 109.291C120.903 108.54 118.317 96.8617 118.317 95.2849C118.317 93.7076 118.876 88.3319 118.876 88.3319L126.6 74.0452C126.6 74.0452 128.946 66.9417 132.648 66.5432Z" fill="#674834"/>
<path fill-rule="evenodd" clip-rule="evenodd" d="M121.924 63.9473C120.329 65.0394 117.961 67.5466 116.174 69.2687C116.735 69.4178 117.589 69.677 118.017 70.1052C118.167 70.2562 116.225 70.8271 116.024 70.8723C115.854 70.9103 118.999 89.1464 118.999 89.1464C118.999 89.1464 119.912 68.915 120.396 67.711C120.88 66.5073 122.182 64.6036 122.182 64.6036L121.924 63.9473Z" fill="#8E6B56"/>
<path fill-rule="evenodd" clip-rule="evenodd" d="M131.179 64.6075C126.979 70.102 120.418 82.4284 118.669 88.7834L130.991 74.4232L127.459 72.4803L131.857 72.6849C132.12 72.6972 132.895 66.8291 132.933 66.6413C132.97 66.4537 131.179 64.6075 131.179 64.6075Z" fill="#8E6B56"/>
<path fill-rule="evenodd" clip-rule="evenodd" d="M123.509 61.6605C123.509 61.6605 122.675 62.6234 122.469 62.7545C122.264 62.8859 120.544 67.3732 120.396 67.711C120.248 68.0491 123.239 64.8946 123.408 64.8201C123.576 64.7448 123.85 64.8657 123.85 64.8657L123.798 64.6485L123.509 61.6605Z" fill="white"/>
<path fill-rule="evenodd" clip-rule="evenodd" d="M120.03 48.7708C121.226 48.8935 122.131 50.0276 122.052 51.3044C121.974 52.5815 120.942 53.5173 119.746 53.3946C118.552 53.2726 117.646 52.1377 117.725 50.861C117.803 49.5845 118.835 48.6488 120.03 48.7708Z" fill="#E9695B"/>
<path fill-rule="evenodd" clip-rule="evenodd" d="M118.856 46.0902C117.978 49.5419 119.314 51.9901 120.077 53.4352C120.841 54.8799 121.413 46.0098 121.413 46.0098L118.856 46.0902Z" fill="#1A1A18"/>
<path fill-rule="evenodd" clip-rule="evenodd" d="M134.766 49.7341C135.927 49.8568 136.514 50.9913 136.078 52.2681C135.641 53.5449 134.346 54.481 133.186 54.3583C132.025 54.2355 131.437 53.101 131.874 51.8243C132.31 50.5475 133.605 49.6114 134.766 49.7341Z" fill="#E9695B"/>
<path fill-rule="evenodd" clip-rule="evenodd" d="M127.666 37.787V37.7874C131.552 39.1492 135.315 42.1683 134.591 46.4667L133.356 53.8033C132.577 58.4293 128.38 61.5538 123.938 61.1715C119.855 60.8211 119.058 56.5006 119.325 52.1447L119.767 44.9474C120.035 40.5911 123.589 37.3696 127.666 37.787Z" fill="#F5AC83"/>
<path fill-rule="evenodd" clip-rule="evenodd" d="M130.65 38.7923L130.666 38.8013C133.159 40.3112 134.788 43.2677 134.592 46.4659L133.356 53.664C132.373 59.3948 126.646 62.5985 123.028 60.6802C125.17 61.1675 126.818 60.8388 128.085 60.2161C131.308 58.6342 132.073 54.3937 132.267 51.2306C132.666 44.7233 126.446 49.1523 119.622 47.952C119.383 47.91 119.946 45.7691 119.719 45.7343L119.767 44.9463C119.811 44.2357 119.943 43.5558 120.149 42.9165C123.198 41.2484 127.409 39.1112 129.342 38.8918C129.919 38.8267 130.317 38.7825 130.585 38.7528L130.631 38.78C130.59 38.7897 130.585 38.7944 130.65 38.7923Z" fill="#EE9073"/>
<path fill-rule="evenodd" clip-rule="evenodd" d="M132.099 46.7005C132.099 46.7005 131.986 48.9322 131.911 50.3755C131.838 51.8181 131.83 52.1493 132.365 52.7434C132.365 52.7434 132.758 54.7959 133.366 55.201C133.366 55.201 133.438 51.5459 134.116 50.0374L134.188 44.0083C133.732 44.846 133.06 45.5359 132.073 45.8737C132.103 46.1336 132.113 46.408 132.099 46.7005Z" fill="#362A25"/>
<path fill-rule="evenodd" clip-rule="evenodd" d="M119.569 48.1684C119.569 48.1684 117.955 46.7099 117.514 45.1327C117.143 43.8059 115.998 37.2983 117.683 37.9766C121.465 39.4992 133.531 32.7819 134.247 41.1974C134.247 41.1974 134.797 40.6431 135.239 40.8325C135.681 41.0211 135.015 42.0126 135.015 42.0126C135.015 42.0126 136.492 43.2347 136.681 44.1524C136.813 44.7869 135.897 47.5168 135.03 49.49C134.643 50.3683 133.248 54.5856 133.28 54.9519L132.801 46.6733L130.351 42.8933L123.051 42.0969L119.724 45.6376L119.569 48.1684Z" fill="#362A25"/>
<path fill-rule="evenodd" clip-rule="evenodd" d="M133.623 48.6636C133.623 48.6636 131.566 48.0077 131.647 45.9573C130.95 47.0459 129.284 47.1248 130.231 45.4223C130.231 45.4223 125.536 48.6955 119.422 47.2069C119.422 47.2069 118.324 41.1724 119.522 40.6243C120.721 40.077 129.121 41.0428 129.991 41.4667C130.861 41.8913 135.42 44.6567 135.42 44.6567L133.623 48.6636ZM118.075 37.27C118.028 37.2212 118.028 37.1404 118.075 37.0912C118.121 37.042 118.197 37.042 118.244 37.0908C118.249 37.0959 119.992 38.9856 123.276 38.4574C123.341 38.4469 123.403 38.4947 123.413 38.5631C123.422 38.6319 123.377 38.6967 123.312 38.7072C119.907 39.2549 118.081 37.2755 118.075 37.27ZM134.081 42.0101C134.083 42.0028 135 39.4196 133.07 36.4186C133.033 36.3611 132.958 36.3462 132.903 36.3849C132.849 36.424 132.834 36.5026 132.871 36.5602C134.732 39.4536 133.856 41.9196 133.854 41.9264C133.832 41.9923 133.864 42.0644 133.927 42.0875C133.99 42.1107 134.059 42.0756 134.081 42.0101Z" fill="#362A25"/>
<path fill-rule="evenodd" clip-rule="evenodd" d="M135.837 67.5984C135.837 67.5984 137.197 68.2424 138.227 69.8348C138.809 70.7351 145.697 87.7169 146.138 88.8217C146.58 89.9269 146.472 92.6068 145.265 94.1504C144.774 94.7773 141.381 99.2929 139.833 101.214C138.461 102.915 136.532 101.824 134.554 101.954C135.908 99.9268 140.258 91.0477 140.485 90.6665C140.755 90.2125 140.899 89.7618 140.473 88.9126C140.047 88.0641 135.524 80.0443 135.524 80.0443C135.524 80.0443 132.931 70.4184 135.837 67.5984Z" fill="#674834"/>
<path fill-rule="evenodd" clip-rule="evenodd" d="M99.287 88.9796C98.6811 88.9043 98.2037 88.6737 97.8832 88.459C97.4204 88.1484 96.7541 87.4584 95.5375 87.0718C94.3205 86.6848 94.4303 87.2423 94.9796 87.7455C95.5288 88.2487 96.1199 89.0491 96.1199 89.0491C96.1199 89.0491 93.7814 89.7365 92.7917 89.9323C91.802 90.1278 91.436 90.7961 91.9418 91.0821C92.2757 91.271 93.1722 91.0375 93.2853 91.0719C93.32 91.082 92.5395 91.338 92.5225 91.4183C92.4726 91.6536 92.4719 91.8951 92.8546 92.0446C93.2376 92.1938 93.8186 91.9422 93.8186 91.9422C93.8186 91.9422 93.3825 92.1633 93.2249 92.4283C93.135 92.5796 93.2119 92.786 93.3221 92.8696C93.6246 93.0995 94.7993 92.8606 94.7993 92.8606C94.7993 92.8606 94.3765 93.0658 94.2468 93.3051C94.1355 93.5096 94.3017 93.7511 94.4329 93.7771C94.6067 93.8115 95.3232 93.6906 96.1384 93.5208C97.0616 93.329 98.5351 92.9398 99.3886 92.4863C100.01 92.1561 100.396 91.8969 100.796 91.8712C100.974 91.8585 101.416 89.2431 99.287 88.9796Z" fill="#F5AC83"/>
<path fill-rule="evenodd" clip-rule="evenodd" d="M99.007 88.9321C100.005 89.9924 100.106 90.614 100.152 91.14C100.169 91.3275 99.9703 91.5726 99.6303 91.8328C98.8986 92.3928 97.5111 93.022 96.1965 93.295C95.6271 93.413 95.1382 93.5817 94.7422 93.7666C95.0652 93.7304 95.5783 93.637 96.1373 93.5205C97.0605 93.3286 98.534 92.9395 99.3875 92.4859C99.6433 92.3501 99.859 92.226 100.053 92.1257C100.329 91.9816 100.56 91.8861 100.795 91.8708C100.974 91.8589 101.416 89.2435 99.2867 88.9799C99.1902 88.9672 99.097 88.9513 99.007 88.9321Z" fill="#EE9073"/>
<path fill-rule="evenodd" clip-rule="evenodd" d="M144.042 106.628C143.958 105.351 142.855 104.384 141.58 104.47C140.305 104.555 139.341 105.659 139.426 106.936C139.76 111.843 140.294 117.296 141.082 123.349H99.0771C99.9085 117.331 100.571 111.908 101.094 107.027C101.23 105.755 100.309 104.614 99.0391 104.479C97.7691 104.343 96.6301 105.265 96.495 106.538C95.4616 116.177 93.8836 127.93 91.5324 142.209C91.097 144.852 90.6356 147.58 90.146 150.397H94.8379C95.2798 147.842 95.6983 145.361 96.095 142.953C96.9731 137.623 97.7434 132.643 98.4187 127.993H141.719C142.392 132.657 143.207 137.652 144.186 142.998C144.624 145.393 145.096 147.859 145.602 150.397H150.315C149.744 147.563 149.217 144.819 148.731 142.163C147.636 136.181 146.748 130.643 146.039 125.519C146.031 125.405 146.015 125.293 145.992 125.184C145.041 118.264 144.416 112.104 144.042 106.628Z" fill="#E3B19B"/>
<path fill-rule="evenodd" clip-rule="evenodd" d="M1.9796 104.325H145.8C146.774 104.325 147.57 105.378 147.57 106.665C147.57 107.951 146.773 109.005 145.8 109.005H0.819C1.09687 107.405 1.48602 105.842 1.9796 104.325Z" fill="#E3B19B"/>
<path fill-rule="evenodd" clip-rule="evenodd" d="M3.39421 100.696H149.568C150.81 100.696 151.826 102.039 151.826 103.68V103.68C151.826 105.322 150.81 106.665 149.568 106.665H1.31076C1.82277 104.596 2.52267 102.6 3.39421 100.696Z" fill="white"/>
<path fill-rule="evenodd" clip-rule="evenodd" d="M116.074 100.696H120.772V106.665H116.074V100.696ZM142.831 100.696H145.459V106.665H142.831V100.696ZM133.614 100.696H138.869V106.665H133.614V100.696ZM128.215 100.696H129.435V106.665H128.215V100.696ZM123.212 100.696H125.652V106.665H123.212V100.696Z" fill="#F9EAE0"/>
<path fill-rule="evenodd" clip-rule="evenodd" d="M2.96822 101.665H43.7382C44.4764 101.665 45.0802 102.463 45.0802 103.439C45.0802 104.414 44.476 105.213 43.7382 105.213H1.70392C2.06164 104.001 2.48331 102.817 2.96822 101.665Z" fill="#F9EAE0"/>
<path fill-rule="evenodd" clip-rule="evenodd" d="M28.6232 83.6158C28.6232 83.6158 26.2005 87.4704 25.9631 89.4693C25.7257 91.4686 32.9939 98.2265 34.7514 100.51C36.5093 102.795 34.2763 103.556 33.6114 103.414C32.9466 103.271 20.9279 93.7999 20.168 92.42C18.3108 89.0483 25.7011 72.2273 27.1649 71.4877C29.4742 70.3199 28.6232 83.6158 28.6232 83.6158Z" fill="#8E6B56"/>
<path fill-rule="evenodd" clip-rule="evenodd" d="M44.8308 119.834L45.878 122.783C45.878 122.783 43.1391 139.635 41.5333 150.397H32.8385C30.7818 140.766 27.0182 124.181 29.8438 117.345C33.7693 107.851 44.8308 119.834 44.8308 119.834Z" fill="#1A1A18"/>
<path fill-rule="evenodd" clip-rule="evenodd" d="M53.3117 116.919L52.8741 119.738C52.8741 119.738 53.4746 140.073 53.7236 150.397H45.3056C42.3712 141.447 35.9793 123.901 38.1574 116.323C41.0094 106.402 53.3117 116.919 53.3117 116.919Z" fill="#302D28"/>
<path fill-rule="evenodd" clip-rule="evenodd" d="M52.0062 150.397H51.4411C51.8595 133.166 49.8245 118.138 49.8183 118.091C49.7981 117.936 49.9072 117.794 50.0619 117.774C50.2165 117.754 50.3582 117.863 50.3784 118.018C50.3845 118.064 52.4243 133.127 52.0062 150.397Z" fill="#1A1A18"/>
<path fill-rule="evenodd" clip-rule="evenodd" d="M28.5022 88.2856C28.5022 88.2856 31.739 97.7388 32.0172 99.2267C32.2958 100.713 28.4563 116.647 27.9038 120.046C27.9038 120.046 27.8428 120.365 28.1842 120.524C28.1842 120.524 33.6927 119.781 39.7675 120.1C45.8422 120.418 49.0949 122.739 53.6145 120.668C53.6145 120.668 53.9946 120.561 53.8248 119.712C53.6546 118.862 50.3733 103.714 50.4727 99.4652C50.5132 97.745 50.4619 94.9102 50.3892 92.0609C50.2823 87.8729 52.8864 82.3785 52.9102 81.6197C52.9504 80.3451 49.8956 74.3924 41.4957 70.1313C33.0951 65.8705 26.7757 77.6898 28.5022 88.2856Z" fill="#E9695B"/>
<path fill-rule="evenodd" clip-rule="evenodd" d="M28.5022 88.2856C28.5022 88.2856 28.7208 88.9241 29.0489 89.8939C29.1847 89.7115 29.3437 89.558 29.5208 89.4918C30.1206 89.2662 31.7256 89.6872 34.4403 89.5222C37.155 89.3571 40.3792 87.6437 42.029 84.8491C43.6789 82.0541 48.2082 89.0262 48.3282 89.3868C48.4485 89.7473 49.1983 92.302 49.1383 94.5854C49.0783 96.8697 50.5782 106.155 50.9384 109.58C51.2983 113.006 53.019 119.773 51.3789 121.378C52.1009 121.249 52.8391 121.023 53.6148 120.668C53.6148 120.668 53.995 120.561 53.8251 119.712C53.6549 118.862 50.3737 103.714 50.4734 99.4652C50.5135 97.745 50.4622 94.9102 50.3896 92.0609C50.2826 87.8729 52.8868 82.3785 52.9106 81.6197C52.9507 80.3451 49.896 74.3924 41.4961 70.1313C33.0951 65.8705 26.7757 77.6898 28.5022 88.2856ZM31.9829 99.0641C32.367 99.34 32.8403 99.6346 33.2111 99.7237C33.9608 99.9043 37.4405 99.8739 36.9903 100.265C36.5404 100.655 32.9408 101.647 32.7009 102.067C32.4609 102.488 32.281 106.275 32.488 114.141C32.5646 117.045 33.4065 118.886 34.4385 120.054C30.8118 120.169 28.1838 120.523 28.1838 120.523C27.8424 120.364 27.9038 120.046 27.9038 120.046C28.4559 116.646 32.2954 100.713 32.0169 99.2259C32.0089 99.1796 31.997 99.126 31.9829 99.0641Z" fill="#D64C47"/>
<path fill-rule="evenodd" clip-rule="evenodd" d="M47.4581 47.9534L48.5565 51.2302C48.5565 51.2302 47.8592 62.2173 46.6874 63.8803C45.5156 65.5429 43.7476 64.142 41.6486 63.7018C39.5492 63.2613 39.6468 59.9359 39.5004 58.9578C39.3541 57.9797 40.8186 49.0292 47.4581 47.9534Z" fill="#F5AC83"/>
<path fill-rule="evenodd" clip-rule="evenodd" d="M40.501 73.4024C44.6523 81.4793 53.0956 94.9844 54.9095 96.7937C55.7518 97.6339 56.4517 98.1917 57.3062 98.6768C58.2916 99.2365 59.4825 99.6995 61.3337 100.388C64.7891 101.672 72.0186 103.95 72.9039 103.866C73.7892 103.782 74.0457 101.885 73.7454 101.352C73.4452 100.82 63.1038 96.6008 60.6265 95.0807C58.1492 93.5607 53.7626 80.3929 51.9838 76.5054C47.4516 66.6004 36.3496 65.3258 40.501 73.4024Z" fill="#8E6B56"/>
<path fill-rule="evenodd" clip-rule="evenodd" d="M48.2324 53.1535C53.3146 53.3052 52.8322 44.0021 49.6532 41.6719C47.6518 40.2044 41.6656 42.5375 38.785 42.5864C35.9048 42.6352 27.6361 43.188 28.2222 56.393C28.4361 61.2192 27.6726 64.7647 26.5261 67.7077C23.7763 74.7692 21.5859 87.5203 29.5558 88.9343C36.9169 90.2408 41.0827 87.5902 42.8674 80.2601C42.8674 80.2601 43.1604 74.7823 46.8706 72.7279C50.5807 70.6739 48.4113 68.8071 46.2845 66.1743C44.1577 63.5411 42.4768 62.2125 42.9646 58.5936C43.4527 54.9744 46.7484 57.314 48.0915 53.1698L48.2324 53.1535Z" fill="#362A25"/>
<path fill-rule="evenodd" clip-rule="evenodd" d="M48.2324 53.1535C51.0963 53.2385 52.193 50.3215 52.0358 47.3419C50.2082 51.3384 44.1143 50.1543 44.1143 50.1543C44.2942 52.4081 39.3151 53.8507 37.4553 57.9974C35.5955 62.1445 40.5006 73.4023 35.7155 81.9176C30.9751 90.3533 25.0486 85.3204 24.938 85.2256C25.7719 87.1446 27.231 88.5223 29.5555 88.9346C36.9165 90.2411 41.0824 87.5905 42.867 80.2604C42.867 80.2604 43.16 74.7826 46.8702 72.7283C50.5804 70.6743 48.4109 68.8074 46.2841 66.1746C44.1573 63.5414 42.4764 62.2129 42.9642 58.594C43.4523 54.9747 46.7481 57.3143 48.0911 53.1701L48.2324 53.1535Z" fill="#1A1A18"/>
<path fill-rule="evenodd" clip-rule="evenodd" d="M42.398 58.5882C42.3886 58.5104 42.4439 58.4398 42.5212 58.43C42.5989 58.4206 42.6697 58.4756 42.6787 58.5534C42.6798 58.5621 43.0332 61.5414 45.0386 63.5795C46.1956 64.7556 47.4653 66.2633 48.2378 67.6324C48.8499 68.718 49.1509 69.7251 48.8478 70.4357C48.8171 70.5078 48.7343 70.5411 48.6624 70.5103C48.5905 70.4795 48.5569 70.3966 48.5876 70.3242C48.8514 69.7063 48.5634 68.7836 47.9921 67.7707C47.2344 66.4269 45.981 64.9402 44.8373 63.7778C42.7636 61.6699 42.3991 58.5965 42.398 58.5882Z" fill="#1A1A18"/>
<path fill-rule="evenodd" clip-rule="evenodd" d="M51.608 46.4522C51.5957 46.3751 51.6481 46.3027 51.7254 46.2904C51.8024 46.2781 51.875 46.3305 51.887 46.4076C51.8909 46.4315 53.2795 54.7358 47.1965 53.7816C47.1195 53.77 47.0668 53.6976 47.0787 53.6205C47.0906 53.543 47.1629 53.4902 47.2398 53.5021C52.9352 54.3955 51.6113 46.4746 51.608 46.4522Z" fill="#1A1A18"/>
<path fill-rule="evenodd" clip-rule="evenodd" d="M94.5871 117.952C95.4001 119.631 97.7232 123.822 96.8209 126.101C96.5373 126.818 95.8464 127.25 95.6751 127.1C95.5367 126.979 95.6433 126.439 95.6433 126.439C95.2881 127.225 95.1147 127.172 94.4582 126.912C94.2666 126.836 94.6395 126.421 94.6948 126.067C94.6948 126.067 94.6048 126.735 94.0708 126.852C93.9331 126.882 93.1545 126.82 93.2827 126.694C93.8392 126.145 93.6939 125.657 93.6939 125.657C93.7102 126.182 93.1158 126.641 92.9156 126.71C92.443 126.872 91.3857 125.474 91.8634 125.272C92.0726 125.184 92.8379 125.891 92.6453 125.494C92.5196 125.236 92.435 124.92 92.3339 124.575C91.9823 123.376 91.9892 123.626 91.7604 122.89C91.6557 122.552 92.0303 121.27 91.9545 120.999C91.5906 119.696 91.0641 117.223 91.0641 117.223L94.5871 117.952Z" fill="#F5AC83"/>
<path fill-rule="evenodd" clip-rule="evenodd" d="M65.7535 113.534L64.0895 120.048C64.0895 120.048 62.5112 135.247 60.9467 150.397H73.069C75.4918 139.809 77.4679 131.136 77.9694 129.093C79.4469 123.079 79.4451 113.975 65.7535 113.534Z" fill="#B56B41"/>
<path fill-rule="evenodd" clip-rule="evenodd" d="M81.4129 44.1937L82.7058 47.8966C82.7058 47.8966 82.3611 58.1578 81.0548 60.0616C79.7486 61.965 77.2901 61.8531 74.9017 61.3832C72.5133 60.913 72.716 57.9022 72.5361 56.7942C72.3561 55.6864 73.8932 45.5081 81.4129 44.1937Z" fill="#F5AC83"/>
<path fill-rule="evenodd" clip-rule="evenodd" d="M74.7514 56.7112L77.2851 57.3335C77.2851 57.3335 75.8553 65.358 75.4719 65.6957C75.0878 66.0335 67.287 64.7701 66.9433 63.8578C66.5997 62.9463 67.6042 61.2402 67.7824 59.9892C67.9609 58.7381 68.388 57.428 68.388 57.428L74.7514 56.7112Z" fill="#ED7862"/>
<path fill-rule="evenodd" clip-rule="evenodd" d="M75.869 64.4483C75.869 64.4483 76.3051 64.7281 76.338 65.1578C76.3601 65.442 76.4489 66.2185 76.506 66.7108C76.5353 66.962 76.5563 67.1397 76.5563 67.1397C76.5563 67.1397 76.1078 67.8257 73.7762 67.4659C71.4445 67.1061 67.0806 65.9665 66.7439 65.6378C66.4075 65.3088 66.8754 63.3073 66.8754 63.3073C66.8754 63.3073 72.8255 64.5359 75.869 64.4483Z" fill="white"/>
<path fill-rule="evenodd" clip-rule="evenodd" d="M60.6395 71.3838C60.6395 71.3838 58.7414 73.3524 57.7156 76.3906C56.6898 79.4285 54.959 95.1459 54.7935 97.1651C54.628 99.184 64.4957 112.058 64.767 112.314C64.767 112.314 64.8671 112.515 65.2917 112.271C65.7163 112.026 67.1377 110.738 67.0572 110.104C66.9766 109.47 59.7575 99.551 59.5638 97.2274C59.3705 94.904 66.1463 81.1455 66.3667 78.4533C66.5874 75.7608 63.1519 69.8019 60.6395 71.3838Z" fill="white"/>
<path fill-rule="evenodd" clip-rule="evenodd" d="M87.6427 118.12L90.1063 120.087C90.1063 120.087 89.6423 134.181 89.0631 150.397H77.9777C77.4238 143.679 76.918 138.452 76.5675 136.716C75.2692 130.292 71.9229 119.564 72.5483 116.336C73.1731 113.109 87.6427 118.12 87.6427 118.12Z" fill="#D58750"/>
<path fill-rule="evenodd" clip-rule="evenodd" d="M87.6427 118.12L88.0167 118.418C87.9907 120.559 87.8205 134.445 87.5968 150.397H86.842C87.0852 133.091 87.2644 118.211 87.2655 118.116C87.2658 118.075 87.2727 118.036 87.2853 117.999C87.5155 118.076 87.6427 118.12 87.6427 118.12Z" fill="#B56B41"/>
<path fill-rule="evenodd" clip-rule="evenodd" d="M76.5068 66.76C76.5068 66.76 83.6301 68.9653 84.2537 70.1042C84.8774 71.243 87.0038 81.939 87.165 95.0101C87.3262 108.081 90.3382 118.709 90.4802 121.23C90.4802 121.23 90.4044 121.776 90.1283 121.894C90.1283 121.894 88.0571 122.436 81.7934 122.255C75.5297 122.075 67.0951 121.118 64.1116 121.843C64.1116 121.843 63.4778 122.109 63.3268 121.108C63.1761 120.106 66.4902 103.552 66.4057 96.6724C66.3208 89.7926 59.3254 75.258 59.1447 74.0561C58.9637 72.8543 64.1217 67.017 66.6366 65.3482L76.5068 66.76Z" fill="#472E17"/>
<path fill-rule="evenodd" clip-rule="evenodd" d="M69.7845 121.622C67.3506 121.533 65.2989 121.555 64.1116 121.843C64.1116 121.843 63.4778 122.109 63.3268 121.108C63.1761 120.106 66.4902 103.552 66.4057 96.6728C66.3208 89.793 59.3254 75.2583 59.1447 74.0565C58.9637 72.8546 64.1217 67.0174 66.6366 65.3486L67.4648 65.4673C66.2387 66.5356 63.5848 68.9259 62.7862 70.2743C61.7365 72.0474 63.416 78.3878 64.556 81.8134C65.6957 85.2394 68.1553 93.0524 68.4555 93.7131C68.7554 94.3745 70.1354 94.6148 70.9151 95.0351C71.6949 95.4561 69.4756 95.8768 69.0553 96.6579C68.7301 97.2636 69.4832 112.603 69.7845 121.622Z" fill="#342000"/>
<path fill-rule="evenodd" clip-rule="evenodd" d="M84.3466 70.0264C84.9012 70.6537 85.7424 71.9565 86.3852 74.5007C87.4338 78.651 89.4465 93.56 90.8593 100.316C92.2724 107.071 95.3951 117.635 95.4016 118.19C95.4085 118.745 94.9734 119.417 94.533 119.617C94.0918 119.817 92.8249 120.415 92.4379 120.503C92.0513 120.591 91.5519 120.541 91.3268 120.267C91.1021 119.992 86.5869 108.862 84.8315 101.334C83.5181 95.6998 80.4334 83.9728 79.3129 78.0146C78.4204 73.2713 82.1479 67.5401 84.3466 70.0264Z" fill="white"/>
<path fill-rule="evenodd" clip-rule="evenodd" d="M82.7058 47.8969C82.7058 47.8969 84.1909 47.3217 84.9139 46.3305C85.6369 45.3394 84.1536 38.8639 83.2705 37.7139C82.3878 36.5645 79.5412 38.764 78.2722 38.8241C77.0032 38.8842 66.8577 32.2629 66.0469 42.7464C66.0469 42.7464 65.8286 42.2247 65.2487 42.165C64.6684 42.1053 64.7269 43.2202 65.5103 43.5229C65.5103 43.5229 63.949 45.1714 64.0693 47.7141C64.1896 50.2564 67.7614 58.2505 67.7827 59.9892C67.7827 59.9892 72.7601 60.7718 74.4345 60.1159C76.1093 59.4599 77.4845 57.4765 77.4755 56.725C77.4661 55.9731 77.4646 55.8392 77.4614 55.5938C77.4585 55.348 77.3783 54.8698 77.0567 54.081C76.7351 53.2929 76.3622 52.2742 76.798 51.7819C77.2337 51.2896 78.6603 51.3497 78.953 53.4105C78.953 53.4105 78.9859 53.5774 79.0917 53.576C79.1976 53.5749 79.2182 53.4515 79.216 53.2647C79.2135 53.0779 79.0433 51.1709 79.0372 50.8697C79.0372 50.8697 80.6259 48.1728 80.498 46.8131C80.4977 46.8138 81.7352 47.8361 82.7058 47.8969Z" fill="#1A1A18"/>
<path fill-rule="evenodd" clip-rule="evenodd" d="M84.6635 41.9333C84.2725 40.0958 83.7005 38.2735 83.2706 37.7142C82.3878 36.5649 79.5412 38.7644 78.2722 38.8245C77.0032 38.8846 66.8581 32.2632 66.0469 42.7471C66.0469 42.7471 65.8286 42.2251 65.2487 42.1654C64.6684 42.1057 64.7269 43.221 65.5103 43.5232C65.5103 43.5232 64.053 45.0625 64.0632 47.46C64.667 48.5456 65.8481 49.6479 68.1415 50.1232C73.3606 51.2049 78.3098 44.6538 78.6401 43.3317C78.6401 43.3317 78.7001 43.0012 78.9252 43.2116C79.1492 43.4219 84.0727 46.1228 84.6635 41.9333Z" fill="#362A25"/>
<path fill-rule="evenodd" clip-rule="evenodd" d="M82.485 47.6145C82.4185 47.5946 82.3484 47.633 82.3289 47.6996C82.3094 47.7666 82.3477 47.8368 82.4142 47.8564C82.4174 47.8574 83.4715 48.1923 85.0013 46.9724C85.0555 46.9293 85.0649 46.8496 85.0219 46.795C84.9786 46.7407 84.8994 46.7316 84.8449 46.7747C83.4187 47.9117 82.4879 47.6145 82.485 47.6145Z" fill="#1A1A18"/>
<path fill-rule="evenodd" clip-rule="evenodd" d="M66.1126 43.1573C66.1354 43.2232 66.2077 43.2572 66.2734 43.2344C66.3392 43.2112 66.3735 43.1388 66.3504 43.0733C66.3479 43.0664 65.4279 40.5997 67.3824 37.7056C67.4214 37.6476 67.4062 37.5691 67.3488 37.53C67.2909 37.4913 67.2125 37.5061 67.1735 37.5633C65.1464 40.5654 66.1098 43.1497 66.1126 43.1573Z" fill="#362A25"/>
<path fill-rule="evenodd" clip-rule="evenodd" d="M92.8683 123.654C92.6598 122.367 92.8683 121.116 93.2152 121.116C93.4912 121.116 94.6677 120.412 95.3991 119.599C95.3069 119.407 95.2166 119.221 95.1295 119.045C94.9669 119.304 94.7505 119.518 94.5326 119.617C94.0914 119.817 92.8246 120.415 92.4376 120.503C92.2461 120.547 92.0268 120.556 91.8269 120.522C91.8707 120.693 91.9133 120.853 91.9541 120.999C92.03 121.27 91.6549 122.551 91.7601 122.89C91.9888 123.625 91.9819 123.376 92.3335 124.574C92.4347 124.92 92.5196 125.235 92.645 125.494C92.8379 125.89 92.0723 125.183 91.8631 125.272C91.7951 125.3 91.7583 125.353 91.7464 125.422C92.1688 125.873 92.7624 126.346 93.024 126.209C93.389 126.017 93.0764 124.94 92.8683 123.654Z" fill="#ED7862"/>
<path fill-rule="evenodd" clip-rule="evenodd" d="M191.373 103.007C199 98.9454 200.936 107.782 197.97 115.099C195.558 121.05 185.042 138.443 180.774 149.979H176.648C176.474 133.991 182.492 107.735 191.373 103.007Z" fill="#D64C47"/>
<path fill-rule="evenodd" clip-rule="evenodd" d="M175.224 69.4815C166.478 61.5932 161.01 72.6346 162.523 83.2868C164.034 93.9386 176.045 131.499 173.883 144.664C173.045 149.767 174.112 149.453 175.781 146.146C184.11 129.648 187.262 80.3405 175.224 69.4815Z" fill="#F18A00"/>
<path fill-rule="evenodd" clip-rule="evenodd" d="M173.7 148.322C173.887 148.811 174.303 148.568 174.86 147.755C183.975 117.337 169.776 71.8899 169.731 71.744C169.654 71.4939 169.389 71.3534 169.139 71.4309C168.889 71.508 168.749 71.7741 168.826 72.0246C168.871 72.1705 183.263 118.238 173.7 148.322Z" fill="#D64C47"/>
<path fill-rule="evenodd" clip-rule="evenodd" d="M156.123 94.7542C147.648 91.0589 146.318 100.647 150.091 108.205C153.734 115.504 170.908 139.057 173.572 149.979H175.77C176.93 134.543 167.343 99.6474 156.123 94.7542Z" fill="#FCC100"/>
<path fill-rule="evenodd" clip-rule="evenodd" d="M175.089 149.979C172.727 125.724 152.66 97.9029 152.593 97.8095C152.474 97.6419 152.241 97.6042 152.074 97.7237C151.907 97.8435 151.869 98.077 151.989 98.2435C152.055 98.3366 171.992 125.977 174.349 149.979H175.089Z" fill="#F18A00"/>
<path fill-rule="evenodd" clip-rule="evenodd" d="M163.804 143.355H188.585C189.326 143.355 189.932 143.963 189.932 144.705V149.979H162.456V144.705C162.456 143.963 163.063 143.355 163.804 143.355Z" fill="#8B472D"/>
<path fill-rule="evenodd" clip-rule="evenodd" d="M163.532 143.355H183.311C183.903 143.355 184.387 143.963 184.387 144.705V149.979H162.456V144.705C162.456 143.963 162.941 143.355 163.532 143.355Z" fill="#B56B41"/>
<path fill-rule="evenodd" clip-rule="evenodd" d="M229.157 152.52H8.95042C7.96109 152.52 7.1517 151.709 7.1517 150.717C7.1517 149.726 7.96109 148.914 8.95042 148.914H229.157C230.146 148.914 230.957 149.726 230.957 150.717C230.956 151.709 230.146 152.52 229.157 152.52Z" fill="#1A1A18"/>
<defs>
<linearGradient id="paint0_linear_19_71" x1="88.5308" y1="42.8733" x2="88.5308" y2="9.36399" gradientUnits="userSpaceOnUse">
<stop stop-color="#FDEDE2"/>
<stop offset="1" stop-color="white"/>
</linearGradient>
</defs>
</svg>
