<svg width="232" height="150" viewBox="0 0 232 150" fill="none" xmlns="http://www.w3.org/2000/svg">
<path d="M33.0861 143.336C33.0861 143.336 9.2627 127.233 26.3518 113.625C38.089 104.279 38.5418 93.6254 30.7948 84.1694C23.0478 74.7134 12.9085 35.9052 55.9726 47.9802C99.0368 60.0551 95.2475 50.4834 100.305 26.1059C105.363 1.72849 144.586 -1.03317 158.796 17.2618C174.692 37.7255 181.28 37.7958 194.993 36.6969C226.862 34.1427 241.099 84.7136 224.382 103.973C208.653 122.093 211.368 130.461 215.926 143.335H33.0861V143.336Z" fill="#EDEDF7"/>
<path d="M197.419 8.02423C183.403 8.02423 172.042 14.9431 172.042 23.4786C172.042 29.7456 178.171 35.1371 186.974 37.5625C187.215 39.4848 186.937 42.9158 183.376 46.8168C183.376 46.8168 193.03 45.9399 195.254 38.8729C195.968 38.9096 196.689 38.9329 197.419 38.9329C211.434 38.9329 222.796 32.0137 222.796 23.4786C222.796 14.9431 211.434 8.02423 197.419 8.02423Z" fill="#ADC9F2"/>
<path d="M187.201 26.7983C188.866 26.7983 190.217 25.4481 190.217 23.7825C190.217 22.117 188.866 20.7668 187.201 20.7668C185.535 20.7668 184.185 22.117 184.185 23.7825C184.185 25.4481 185.535 26.7983 187.201 26.7983Z" fill="white"/>
<path d="M197.339 26.7983C199.004 26.7983 200.354 25.4481 200.354 23.7825C200.354 22.117 199.004 20.7668 197.339 20.7668C195.673 20.7668 194.323 22.117 194.323 23.7825C194.323 25.4481 195.673 26.7983 197.339 26.7983Z" fill="white"/>
<path d="M207.476 26.7983C209.142 26.7983 210.492 25.4481 210.492 23.7825C210.492 22.117 209.142 20.7668 207.476 20.7668C205.81 20.7668 204.46 22.117 204.46 23.7825C204.46 25.4481 205.81 26.7983 207.476 26.7983Z" fill="white"/>
<path d="M220.14 145.387H162.949V81.4671C162.949 76.3744 167.078 72.2459 172.171 72.2459H210.919C216.012 72.2459 220.14 76.3744 220.14 81.4671V145.387Z" fill="#2E3A60"/>
<path d="M128.674 122.925C128.185 124.673 128.036 126.48 127.739 128.271C126.265 137.184 131.795 143.05 134.575 142.466C139.708 141.388 144.786 129.405 146.43 124.424C148.176 119.132 151.367 106.13 150.106 104.635C148.895 103.2 146.935 102.657 145.075 102.403C142.905 102.106 140.626 102.112 138.605 102.957C132.286 105.601 130.285 117.153 128.674 122.925Z" fill="#EF765E"/>
<path d="M130.345 123.852C127.392 120.953 121.982 105.776 122.961 100.5C123.74 96.3019 122.532 94.1183 123.354 91.6132C124.215 88.9892 125.132 87.6828 126.322 85.1763C123.365 82.7899 121.837 87.46 120.437 89.6764C119.725 88.7649 119.028 87.7002 118.949 85.6891C118.774 81.1945 119.725 75.7774 118.235 75.1976C115.803 75.1976 116.806 86.9424 115.178 87.1073C114.267 87.1994 112.878 73.77 110.973 73.77C108.97 73.77 110.931 82.7648 111.361 87.1976C108.97 85.0055 106.499 78.0266 104.81 77.5712C101.36 77.5057 110.021 89.1071 108.103 90.1583C107.284 90.6071 104.624 87.4724 101.688 86.4867C99.6293 88.03 103.785 90.0932 105.786 91.9332C106.506 92.5957 107.286 93.2145 107.859 93.9974C108.516 94.8932 108.853 95.9601 109.212 96.9986C110.714 101.354 112.224 100.846 112.879 102.835C113.565 104.924 118.124 133.678 121.014 137.804C123.904 141.931 129.754 144.647 134.418 142.467C135.603 141.913 136.63 141.088 137.542 140.176C138.754 138.963 138.354 131.715 130.345 123.852Z" fill="#EF765E"/>
<path d="M129.47 123.301C131.596 126.577 134.362 129.321 136.399 132.679C136.509 132.861 136.836 132.743 136.756 132.529C135.427 128.958 132.119 125.987 129.777 123.065C129.638 122.892 129.35 123.116 129.47 123.301Z" fill="#FF8A6B"/>
<path d="M135.379 97.5373C133.285 103.154 132.098 107.074 130.025 112.698C135.66 116.114 143.672 120.178 150.234 120.778C153.121 121.043 156.788 97.8867 153.886 89.6764C151.903 84.0678 147.808 82.483 146.088 83.0861C140.29 85.1195 138.055 90.3563 135.379 97.5373Z" fill="#F2C691"/>
<path d="M191.806 79.2948C190.971 78.3869 176.884 77.9418 176.884 77.9418C168.275 77.9811 162.353 78.5486 153.886 80.1065C151.44 80.5567 148.271 81.8937 146.088 83.0862C142.407 85.0973 141.913 86.8721 140.848 90.9297C139.783 94.9872 140.416 100.957 141.304 105.056C142.778 111.866 143.781 116.96 146.791 123.244C147.801 125.352 148.806 127.479 149.428 129.733C150.732 134.463 150.282 139.476 149.823 144.36C156.091 147.236 163.339 146.349 170.218 145.855C183.108 144.929 196.053 145.597 208.958 146.265C210.237 131.923 202.363 90.7615 191.806 79.2948Z" fill="#FED7A4"/>
<path d="M150.598 85.7696C151.873 90.9715 158.127 93.2462 162.857 92.5786C169.28 91.6719 175.41 87.7883 177.649 81.4809C177.74 81.2261 177.33 81.0511 177.21 81.2957C174.455 86.9118 169.922 90.6734 163.687 91.8156C160.577 92.3853 157.583 92.1829 154.901 90.3749C153.278 89.2804 151.486 87.5983 150.767 85.7226C150.728 85.6185 150.57 85.6571 150.598 85.7696Z" fill="#F2C691"/>
<path d="M171.417 85.917C168.154 88.1352 166.037 89.5613 162.152 90.246C158.266 90.9307 153.684 88.3685 151.903 84.0679C151.425 82.9118 153.123 82.0466 154.017 81.1712C155.41 79.8069 155.74 77.6968 155.751 75.7468C155.762 73.7965 152.81 71.294 156.112 69.9334C158.755 68.8447 159.693 65.1679 162.533 65.0252C166.143 64.8436 168.451 63.1885 169.785 66.0939C170.835 68.382 172.177 76.4614 176.734 77.9421C177.991 78.3502 172.348 85.284 171.417 85.917Z" fill="#EF765E"/>
<path d="M158.617 81.909C162.874 81.335 165.964 78.5944 167.884 74.7521C169.805 70.9097 171.044 66.8045 171.192 62.5115C171.338 58.3091 170.616 52.0228 167.884 48.8262C161.74 41.635 139.974 41.5047 140.734 50.0059C141.303 56.3839 144.045 68.7522 147.489 74.4729C150.146 78.8842 153.239 82.6341 158.617 81.909Z" fill="#FF8A6B"/>
<path d="M173.994 44.8709C173.014 42.3538 170.599 39.6985 168.418 41.2917C164.173 36.199 155.47 34.8409 149.776 38.237C146.428 40.2339 137.857 41.4322 137.124 41.3623C132.303 40.9037 133.534 44.6507 135.196 45.4606L134.497 45.7103C133.57 46.0412 133.023 47.0196 133.263 47.9744C133.472 48.8127 133.978 49.5796 134.7 50.0564C134.241 49.9967 132.703 50.4856 132.782 51.3516C132.155 53.9396 135.289 55.373 137.804 56.3708C142.049 58.0546 147.812 56.1269 151.82 53.9396C155.538 51.9114 158.017 49.3452 162.197 48.6569C163.18 48.4949 164.26 48.5273 165.078 49.0962C166.163 49.8508 166.478 51.3002 166.607 52.6157C166.919 55.8117 166.707 59.2737 168.487 61.9458C169.918 64.0941 172.904 64.4166 173.623 61.6721C173.862 60.7555 174.455 59.1921 174.661 58.2876C175.481 54.7011 174.974 47.388 173.994 44.8709Z" fill="#8A2D40"/>
<path d="M137.799 51.4255C139.091 53.8704 142.663 53.7383 144.994 53.284C147.434 52.8083 151.27 51.2307 152.156 48.6703C152.244 48.417 151.932 48.2081 151.717 48.3325C150.839 48.8407 150.201 49.687 149.383 50.2934C148.347 51.0615 147.196 51.657 145.962 52.0413C143.887 52.6882 139.839 53.2749 138.476 51.0291C138.214 50.5963 137.563 50.9788 137.799 51.4255Z" fill="#A03750"/>
<path d="M139.152 48.2525C140.759 49.3339 142.544 49.3864 144.427 49.2586C145.83 49.1636 147.632 49.0478 148.376 47.6817C148.549 47.3643 148.204 47.0302 147.89 47.1958C145.521 48.444 141.976 49.0322 139.482 47.6876C139.108 47.4863 138.804 48.0184 139.152 48.2525Z" fill="#A03750"/>
<path d="M140.613 45.2847C143.19 45.6895 146.858 45.6145 148.868 43.677C149.061 43.491 148.861 43.1783 148.613 43.2394C147.365 43.5492 146.246 44.2051 144.978 44.4971C143.55 44.8257 142.141 44.9073 140.683 44.7704C140.392 44.7435 140.321 45.2389 140.613 45.2847Z" fill="#A03750"/>
<path d="M159.995 44.8451C161.177 44.7071 162.339 44.777 163.478 45.1374C164.655 45.5094 165.484 46.2548 166.557 46.7921C166.754 46.8911 167.042 46.6738 166.889 46.4598C165.456 44.4541 162.177 44.0421 159.933 44.3861C159.676 44.4257 159.733 44.8756 159.995 44.8451Z" fill="#A03750"/>
<path d="M161.523 41.6175C162.281 41.7099 163.028 41.8712 163.754 42.1114C164.415 42.3305 165.036 42.7244 165.725 42.8281C166.093 42.8835 166.403 42.4761 166.107 42.1722C165.054 41.0897 162.954 40.8472 161.523 40.7202C160.941 40.6685 160.962 41.549 161.523 41.6175Z" fill="#A03750"/>
<path d="M168.488 49.3998C168.978 50.1748 169.347 50.9967 169.546 51.895C169.703 52.5997 169.542 53.521 169.987 54.1118C170.092 54.2516 170.32 54.3349 170.456 54.1722C171.004 53.5236 170.738 52.5473 170.556 51.7807C170.313 50.7568 169.869 49.8064 169.279 48.9375C168.951 48.4545 168.17 48.8968 168.488 49.3998Z" fill="#A03750"/>
<path d="M169.252 47.0105C169.783 47.2522 170.251 47.5827 170.638 48.0217C171.001 48.4327 171.189 48.9987 171.563 49.3805C171.736 49.5578 172.036 49.4213 172.041 49.1821C172.055 48.5812 171.523 47.9383 171.117 47.5427C170.642 47.0797 170.082 46.7437 169.461 46.5151C169.176 46.4103 168.972 46.8831 169.252 47.0105Z" fill="#A03750"/>
<path d="M169.648 44.3508C170.197 44.4421 170.679 44.6907 171.055 45.1053C171.378 45.4632 171.467 46.0172 171.849 46.3047C171.948 46.3797 172.129 46.3258 172.181 46.2174C172.459 45.6444 171.901 44.9485 171.498 44.5743C171.003 44.1153 170.393 43.851 169.725 43.7815C169.404 43.7483 169.326 44.2973 169.648 44.3508Z" fill="#A03750"/>
<path d="M170.488 55.9282C166.965 55.9293 166.739 61.8275 167.765 64.6685C168.909 67.8342 171.667 68.449 173.12 65.3521C174.487 62.4368 174.099 55.9271 170.488 55.9282Z" fill="#FF8A6B"/>
<path d="M159.344 72.3685C157.346 73.0459 151.329 73.7954 150.571 73.4998C151.799 77.015 154.067 78.3989 156.037 77.9421C157.747 77.5457 159.868 73.3288 159.344 72.3685Z" fill="white"/>
<path d="M153.581 58.2723C154.574 57.3317 155.918 56.9833 157.265 57.1071C158.328 57.2047 159.311 57.9035 160.359 57.7437C160.733 57.6866 160.833 57.2159 160.688 56.9338C160.034 55.6555 157.768 55.5568 156.508 55.6879C155.016 55.8429 153.817 56.5698 152.95 57.7852C152.678 58.1678 153.261 58.5755 153.581 58.2723Z" fill="#8A2D40"/>
<path d="M148.747 58.2443C146.937 57.0944 144.489 57.2163 142.653 58.2537C142.388 58.4037 142.306 58.6996 142.357 58.9807C142.392 59.1747 142.49 59.2678 142.653 59.3654C142.846 59.4811 143.11 59.4844 143.303 59.3654C144.708 58.498 146.804 58.2461 148.304 59.0032C148.808 59.2569 149.228 58.5493 148.747 58.2443Z" fill="#8A2D40"/>
<path d="M157.107 63.0847C157.216 63.9034 156.824 64.6303 156.233 64.7082C155.642 64.7864 155.075 64.1862 154.967 63.3675C154.859 62.5489 155.25 61.8224 155.841 61.7441C156.432 61.6662 156.999 62.2664 157.107 63.0847Z" fill="#8A2D40"/>
<path d="M148.508 64.2502C148.616 65.0689 148.224 65.7958 147.633 65.8737C147.042 65.9519 146.475 65.3517 146.367 64.5331C146.259 63.7144 146.65 62.9879 147.242 62.9096C147.833 62.8317 148.399 63.432 148.508 64.2502Z" fill="#8A2D40"/>
<path d="M149.969 63.4768C150.007 64.3824 150.283 65.1566 150.602 66.0033C150.981 67.0116 151.132 67.5288 150.215 68.231C149.458 68.8112 148.705 69.4169 149.133 70.522C149.915 72.5407 154.219 71.5455 155.508 70.8649C155.917 70.6486 155.61 70.1136 155.216 70.1733C153.859 70.3786 152.579 70.9271 151.174 70.7619C150.461 70.6781 150.112 70.6996 150.29 69.8955C150.448 69.1777 150.599 69.2469 151.087 68.8232C152.962 67.1976 151.107 65.474 150.935 63.4768C150.883 62.8656 149.942 62.8474 149.969 63.4768Z" fill="#EF765E"/>
<path d="M168.89 60.6809C168.898 60.1829 169.164 59.6897 169.393 59.2616C169.964 58.1918 170.865 59.1575 171.208 59.9849C171.958 61.7929 172.007 63.7188 170.549 65.1843C169.983 65.7525 170.887 66.6508 171.427 66.0622C172.446 64.9502 172.82 63.5572 172.699 62.0608C172.596 60.7813 172.031 58.6749 170.908 57.8824C169.303 56.7493 168.29 59.5172 168.47 60.738C168.506 60.9815 168.887 60.9138 168.89 60.6809Z" fill="#EF765E"/>
<path d="M169.458 62.3269C169.419 62.1835 169.553 61.7813 169.752 61.8289C169.817 61.8446 169.841 61.9487 169.876 61.9949C170.025 62.1904 170.056 62.5657 170.112 62.7983C170.197 63.151 170.238 63.4382 170.105 63.7854C170.005 64.045 169.791 64.2499 169.738 64.5233C169.653 64.9561 170.165 65.3171 170.507 64.9713C170.943 64.5316 170.685 63.8342 170.702 63.2878C170.72 62.7189 170.756 62.1704 170.444 61.6626C169.83 60.6641 168.42 61.7747 169.078 62.5475C169.23 62.7255 169.515 62.5347 169.458 62.3269Z" fill="#EF765E"/>
<path d="M207.495 113.625C207.341 111.101 204.31 95.5349 199.634 89.3345C196.209 84.7936 182.745 90.1179 184.595 101.638C185.884 109.661 189.451 116.835 190.405 124.88C183.342 124.766 158.981 123.871 157.857 123.85C153.97 123.78 145.233 123.455 144.792 123.628C143.737 124.04 139.941 130.068 139.484 130.7C138.617 131.901 141.075 139.021 142.81 139.532C144.486 139.021 142.707 136.162 142.655 134.477C143.009 134.255 146.02 138.88 146.61 139.021C148.409 139.45 146.357 135.387 146.202 133.766C146.589 135.817 150.654 137.713 152.28 139.021C154.632 138.151 150.064 135.221 150.021 133.195C151.093 133.63 152.195 134.071 153.352 134.095C154.509 134.12 155.749 133.638 156.305 132.623C156.493 132.28 171.596 136.159 178.625 137.013C184.63 137.743 196.613 139.711 202.254 137.526C208.191 134.167 208.263 126.233 207.495 113.625Z" fill="#FF8A6B"/>
<path d="M181.747 98.2209C182.633 104.843 185.92 112.718 188.127 119.76C197.025 123.178 206.469 118.5 208.52 115.879C208.042 109.585 206.039 99.8789 203.774 93.9872C201.844 88.9655 197.405 80.532 191.806 79.2947C183.114 77.3739 180.538 89.1799 181.747 98.2209Z" fill="#F2C691"/>
<path d="M192.228 125.393C194.624 125.507 196.501 126.324 198.224 127.938C198.305 128.014 198.462 127.964 198.455 127.842C198.399 126.807 197.133 126.235 196.309 125.85C195.014 125.247 193.65 124.997 192.228 125.038C191.999 125.045 192 125.382 192.228 125.393Z" fill="#EF765E"/>
<path d="M142.166 133.262C141.837 132.565 141.496 131.956 141.843 131.24C142.058 130.795 142.324 130.368 142.585 129.949C143.002 129.276 143.571 128.646 143.904 127.931C143.955 127.822 143.898 127.654 143.753 127.667C142.91 127.739 142.147 129.543 141.793 130.154C141.074 131.396 140.811 132.269 141.839 133.515C141.999 133.708 142.26 133.461 142.166 133.262Z" fill="#EF765E"/>
<path d="M145.868 131.783C145.167 130.237 146.918 128.829 147.557 127.617C147.607 127.522 147.496 127.378 147.395 127.455C146.197 128.369 144.768 130.411 145.547 131.97C145.656 132.186 145.965 131.997 145.868 131.783Z" fill="#EF765E"/>
<path d="M229.777 143.336H18.7212V149.83H229.777V143.336Z" fill="#C4CDEE"/>
<path d="M46.5236 126.504H34.3427C33.6485 126.504 33.0858 127.067 33.0858 127.761V129.778C31.9271 129.452 30.7016 129.489 29.544 130.092C27.9159 130.94 27.2254 132.615 27.0368 134.381C26.8301 136.315 27.4714 138.362 29.0031 139.621C30.0212 140.458 31.613 140.929 33.0858 140.893V143.336H47.7804V127.761C47.7804 127.067 47.2177 126.504 46.5236 126.504ZM30.9345 138.092C29.8276 137.474 29.4188 136.195 29.5444 134.987C29.7806 132.714 31.2035 131.76 33.0858 132.423V138.426C32.3589 138.47 31.64 138.486 30.9345 138.092Z" fill="#2E3A60"/>
<path d="M36.7112 123.567C35.1806 122.064 33.9146 120.268 35.7298 118.473C36.4051 117.806 37.2106 117.272 37.7151 116.447C38.9476 114.432 37.3278 112.334 36.7607 110.384C36.4142 109.193 34.6783 109.694 34.9178 110.892C35.2115 112.359 36.7869 113.497 36.6526 115.004C36.5277 116.406 34.9502 117.127 34.1603 118.182C32.4214 120.502 34.2404 122.666 36.1339 124.144C36.5357 124.457 37.097 123.946 36.7112 123.567Z" fill="white"/>
<path d="M41.5084 123.512C40.6493 122.785 39.6683 121.659 40.2897 120.374C40.5609 119.813 41.1618 119.38 41.5153 118.858C42.0438 118.078 42.3641 117.226 42.4275 116.282C42.5352 114.675 41.8047 112.235 40.2879 111.433C39.7739 111.161 39.1198 111.726 39.4572 112.263C40.2587 113.539 41.4079 114.352 41.3962 116.037C41.3842 117.75 39.9868 118.428 39.237 119.758C38.2116 121.577 39.4379 123.203 41.014 124.153C41.4013 124.386 41.8694 123.817 41.5084 123.512Z" fill="white"/>
<path d="M45.1123 123.408C44.0738 122.589 45.1851 121.73 45.6671 120.982C45.9746 120.504 46.1472 119.948 46.2364 119.392C46.3816 118.483 46.3645 117.428 45.6769 116.754C45.4865 116.567 45.0934 116.692 45.1163 116.986C45.1851 117.867 45.5513 118.629 45.2375 119.524C44.9256 120.414 44.0826 120.846 43.6811 121.655C43.1933 122.638 43.6432 123.639 44.5336 124.158C44.9857 124.422 45.5495 123.753 45.1123 123.408Z" fill="white"/>
<path d="M128.297 139.021H64.3053L54.8329 100.5H118.825L128.297 139.021Z" fill="#2E3A60"/>
<path d="M127.271 139.021H63.2803L53.8076 100.5H117.799L127.271 139.021Z" fill="#1A2039"/>
<path d="M157.162 139.021H63.2803V143.336H157.162V139.021Z" fill="#2E3A60"/>
<path d="M157.162 139.021H127.271V143.336H157.162V139.021Z" fill="#1A2039"/>
<path d="M93.7948 120.044C93.7948 120.17 93.7777 120.293 93.7471 120.413C93.4464 121.524 91.823 122.375 89.8643 122.375C87.6941 122.375 85.9338 121.329 85.9338 120.044C85.9338 119.234 86.6276 118.523 87.6836 118.102C88.3089 117.856 89.0577 117.713 89.8643 117.713C92.0345 117.713 93.7948 118.755 93.7948 120.044Z" fill="#2E3A60"/>
<path d="M93.7948 120.043C93.7948 120.17 93.7777 120.293 93.7471 120.413C93.1217 120.659 92.373 120.802 91.5664 120.802C89.3926 120.802 87.6359 119.76 87.6359 118.471C87.6359 118.345 87.653 118.221 87.6836 118.102C88.3089 117.856 89.0577 117.712 89.8643 117.712C92.0345 117.713 93.7948 118.755 93.7948 120.043Z" fill="#41537F"/>
<path d="M33.0858 97.7306C51.1824 97.7306 65.8527 81.2723 65.8527 60.9699C65.8527 40.6675 51.1824 24.2092 33.0858 24.2092C14.9891 24.2092 0.318848 40.6675 0.318848 60.9699C0.318848 81.2723 14.9891 97.7306 33.0858 97.7306Z" fill="#ADC9F2"/>
<mask id="mask0_19_332" style="mask-type:luminance" maskUnits="userSpaceOnUse" x="0" y="24" width="66" height="74">
<path d="M33.0858 97.7306C51.1824 97.7306 65.8527 81.2723 65.8527 60.9699C65.8527 40.6675 51.1824 24.2092 33.0858 24.2092C14.9891 24.2092 0.318848 40.6675 0.318848 60.9699C0.318848 81.2723 14.9891 97.7306 33.0858 97.7306Z" fill="white"/>
</mask>
<g mask="url(#mask0_19_332)">
<path d="M39.5894 55.5069C44.3174 55.4163 49.0646 64.7911 50.1745 67.7068C50.9269 69.6836 53.3183 77.2985 53.4093 79.2743C53.4592 80.3579 53.4559 81.5839 52.6781 82.3399C51.7004 83.29 49.979 82.9143 49.0086 81.957C48.0382 80.9997 45.0279 77.6796 44.3177 76.5156C40.6249 70.4633 37.4501 68.3925 35.2381 61.8293C33.5117 56.706 39.5894 55.5069 39.5894 55.5069Z" fill="#4D8BD6"/>
<path d="M41.8968 50.7386C41.8462 49.9836 43.0652 50.146 43.8063 50.7841C44.547 51.4222 44.3803 52.2259 45.3566 52.1698C45.2335 51.4444 45.3886 51.0076 45.1087 50.3272C44.3174 48.4031 42.7674 45.8486 43.3997 45.4733C44.2446 45.0405 45.2965 48.251 46.6288 50.1303C47.4827 50.7684 46.1119 45.0001 46.3288 44.6092C47.1893 43.4098 47.6545 47.713 48.5277 49.9021C48.7833 50.1256 49.0166 45.3856 49.2568 45.1916C50.4329 44.2404 49.9113 50.3626 50.3063 50.4161C50.647 50.5697 51.0838 46.7903 51.6687 47.124C52.4156 47.124 51.6039 49.5585 51.2421 51.8113C51.087 52.7777 51.4558 54.9923 50.7427 55.7217C50.5297 55.9394 52.127 58.8598 51.9712 59.0876C51.5573 59.693 48.9958 59.9194 48.0167 59.3129C47.3167 58.8794 47.5267 56.6459 46.8719 56.3136C45.8265 55.7832 45.247 55.3552 44.416 54.1787C43.2923 52.5891 42.1068 50.9755 41.8968 50.7386Z" fill="#FF8A6B"/>
<path d="M53.3915 82.8816C54.814 82.5307 58.1898 81.2451 57.0068 74.3753C55.8802 67.8331 51.3739 56.4217 51.1904 56.4479C49.7675 56.6525 48.3447 56.8571 46.9214 57.062C47.4303 56.9888 48.5143 71.0185 48.6479 72.6121C48.9311 75.9871 47.4634 84.3434 53.3915 82.8816Z" fill="#4D8BD6"/>
<path d="M48.3406 70.0091C48.2296 72.8647 48.3709 76.1294 49.3551 78.843C49.3861 78.9282 49.5408 78.9246 49.5269 78.8197C49.1393 75.8426 48.6009 73.0343 48.6005 70.0091C48.6005 69.8413 48.3472 69.8424 48.3406 70.0091Z" fill="#417CB7"/>
<path d="M47.9337 58.526C48.8546 58.6487 50.1592 58.6661 50.9571 58.111C51.0226 58.0652 51.0087 57.9338 50.9116 57.9432C50.4737 57.9855 50.0576 58.162 49.6226 58.2399C49.0675 58.3393 48.4961 58.3644 47.9337 58.3462C47.8146 58.3422 47.8227 58.5114 47.9337 58.526Z" fill="#417CB7"/>
<path d="M47.6749 56.0722C47.9876 56.4555 48.4233 56.0154 48.6999 55.8276C48.9977 55.6256 49.3114 55.8775 49.6296 55.9102C49.8836 55.9361 50.1275 55.9361 50.3343 55.7774C50.386 55.7377 50.3969 55.6311 50.3135 55.6176C50.007 55.5677 49.7085 55.6496 49.4028 55.5586C49.2088 55.5007 49.021 55.3242 48.8058 55.3471C48.6286 55.3661 48.5383 55.5 48.4134 55.6063C48.1816 55.8036 47.8911 55.7843 47.6752 55.9765C47.6458 56.0027 47.653 56.0453 47.6749 56.0722Z" fill="#EF765E"/>
<path d="M11.2275 58.8587C10.869 59.4309 13.6594 69.3128 14.8129 73.64C15.6316 76.7107 17.2077 93.9057 15.9275 101.497C23.9584 102.688 35.5176 102.262 43.5631 101.176C43.7597 91.0247 44.1044 66.3851 42.5996 60.9699C42.0893 59.1324 40.879 55.4164 38.9724 55.4164C34.6913 55.4164 24.6985 55.4047 20.4626 55.8178C17.1677 56.1393 11.9264 57.7427 11.2275 58.8587Z" fill="#5A96ED"/>
<path d="M20.131 57.6964C21.7723 61.4795 25.9281 63.5911 29.9663 63.3526C30.1523 63.3417 30.1534 63.072 29.9663 63.0625C25.8622 62.8551 22.2972 61.3838 20.3294 57.5803C20.2602 57.446 20.0735 57.564 20.131 57.6964Z" fill="#4D8BD6"/>
<path d="M31.6534 63.2478C34.3962 62.9482 36.9602 60.9517 36.9198 57.9935C36.9169 57.7926 36.6217 57.7955 36.6096 57.9935C36.4389 60.8025 34.3073 62.5984 31.6148 62.9628C31.4547 62.9846 31.4907 63.2657 31.6534 63.2478Z" fill="#4D8BD6"/>
<path d="M23.5213 51.9496C23.1591 54.2581 22.0893 55.4993 21.3759 55.8178C19.8081 56.5178 22.5927 59.3967 23.9825 60.4588C26.8781 62.6723 31.182 62.9118 34.299 61.0991C34.9272 60.7336 35.2625 59.9638 35.6159 59.2853C35.9694 58.6068 36.0218 57.1315 35.5245 56.5728C34.8519 55.8164 34.375 55.7498 33.5357 55.2329C32.7174 54.7291 32.8892 49.9807 32.6635 48.9786C32.2849 47.2973 26.2877 46.8438 24.3057 46.8656C24.5372 46.8627 23.5955 51.4775 23.5213 51.9496Z" fill="#EF765E"/>
<path d="M25.3624 50.3294C26.5665 52.5251 28.7684 54.3378 31.2719 54.392C31.9643 54.407 32.7374 54.3578 33.2583 53.9017C36.012 51.4902 36.4728 46.2734 36.7188 43.543C36.8677 41.8916 37.5109 39.5809 36.7006 38.1344C36.0935 37.05 34.4366 36.7996 33.389 36.1309C32.036 35.2675 30.5221 34.5784 28.9198 34.4845C27.3175 34.3902 25.6154 34.9723 24.6486 36.2532C22.2917 39.3741 23.6483 47.2045 25.3624 50.3294Z" fill="#FF8A6B"/>
<path d="M29.0501 39.4142C30.3954 41.1563 32.4105 41.1585 33.8513 39.4942C35.094 40.2266 36.8211 41.2495 38.1716 40.7424C39.522 40.2357 40.5754 38.8944 40.5492 37.4518C40.523 36.0097 39.2705 34.6392 37.8283 34.6618C38.0722 33.6127 37.5884 32.4345 36.6777 31.8597C35.767 31.2846 33.8935 31.1557 33.0512 31.8269C32.2937 30.4845 31.2093 30.292 29.4982 30.6305C27.8813 30.9501 27.2676 32.2576 26.9251 32.2419C25.7759 32.1888 24.5569 32.3031 23.6145 32.963C22.6721 33.6229 22.1356 34.9683 22.6932 35.9747C21.7606 35.3359 20.3771 36.1797 20.1336 37.2837C19.8904 38.3877 20.4491 39.5128 21.1418 40.4064C19.5279 40.6143 19.5115 41.893 19.5282 42.6956C19.5453 43.5215 20.2544 44.3271 21.0487 44.4345C20.4153 45.9192 22.6488 48.9786 24.0094 46.696C24.6614 45.6018 25.6689 43.3148 25.2041 40.6947C26.4934 41.4063 28.6504 40.9881 29.0501 39.4142Z" fill="#2E3A60"/>
<path d="M25.2012 44.7526C25.1768 43.4069 23.0488 40.8545 22.0442 44.1509C21.6478 45.4511 22.4573 47.8787 23.7852 47.8787C24.2038 47.8787 25.2638 48.2077 25.2012 44.7526Z" fill="#FF8A6B"/>
<path d="M33.2911 48.9878C32.0364 48.9743 29.4218 48.9765 29.0501 48.9878C29.1331 49.7784 30.1039 51.9518 31.6873 51.9496C32.5008 51.9485 33.2736 49.9312 33.2911 48.9878Z" fill="white"/>
<path d="M29.595 43.9572C29.5612 44.4406 29.2507 44.8126 28.9016 44.7879C28.5525 44.7635 28.2973 44.3518 28.3312 43.8684C28.3651 43.385 28.6755 43.0134 29.0246 43.0378C29.3737 43.0621 29.6292 43.4738 29.595 43.9572Z" fill="#2E3A60"/>
<path d="M34.9163 43.9572C34.8825 44.4406 34.572 44.8126 34.2229 44.7879C33.8738 44.7635 33.6187 44.3518 33.6525 43.8684C33.6864 43.385 33.9969 43.0134 34.3459 43.0378C34.6947 43.0621 34.9502 43.4738 34.9163 43.9572Z" fill="#2E3A60"/>
<path d="M31.3313 42.6155C31.2625 43.4211 31.1977 44.7195 31.8158 45.3637C32.1357 45.6972 33.1305 45.8213 33.0104 46.4881C32.8047 47.6307 31.6392 47.5714 30.8188 47.3217C30.6382 47.2667 30.4631 47.5292 30.624 47.6562C31.5093 48.3544 33.0905 48.0825 33.4665 46.9035C33.6267 46.4015 33.4934 45.8318 33.0792 45.4937C32.6788 45.1668 32.3002 45.2542 32.02 44.7122C31.7102 44.1134 31.7295 43.2707 31.7411 42.6152C31.7459 42.348 31.3531 42.3564 31.3313 42.6155Z" fill="#EF765E"/>
<path d="M27.7866 41.5316C28.0626 40.7821 29.9867 41.3234 30.4646 41.5207C30.8872 41.695 31.1518 41.0136 30.7711 40.7941C29.9455 40.3184 27.554 40.128 27.2465 41.3827C27.1598 41.7376 27.6636 41.8661 27.7866 41.5316Z" fill="#2E3A60"/>
<path d="M35.8951 41.9603C35.9756 41.4344 35.4081 41.0583 34.9575 40.9353C34.3889 40.7799 33.5921 40.8236 33.0916 41.1461C32.764 41.3572 32.9653 41.9418 33.369 41.8042C34.093 41.5578 34.9203 41.2858 35.4332 42.0204C35.5424 42.1769 35.8591 42.1958 35.8951 41.9603Z" fill="#2E3A60"/>
<path d="M24.376 44.5291C21.8826 41.7274 22.1825 48.133 23.9181 47.1968C24.0364 47.1331 23.9894 46.9158 23.846 46.9311C22.9782 47.0243 22.9072 45.826 22.8694 45.2287C22.8526 44.9673 22.8228 44.607 22.992 44.3849C23.3833 43.8706 23.9479 44.4563 24.21 44.6947C24.3221 44.7973 24.4764 44.6419 24.376 44.5291Z" fill="#EF765E"/>
<path d="M24.3512 45.4096C24.0906 45.2527 23.7204 45.3947 23.6338 45.6899C23.5224 46.0681 23.7808 46.4033 24.0939 46.5799C24.3105 46.7018 24.507 46.3618 24.2882 46.2475C24.1405 46.1704 23.9876 46.0604 23.973 45.8792C23.9596 45.7063 24.0837 45.5585 24.2609 45.6244C24.3883 45.672 24.4622 45.4766 24.3512 45.4096Z" fill="#EF765E"/>
<path d="M25.2307 37.8719C25.4876 38.1092 26.0031 38.5835 26.402 38.4911C26.7322 38.4146 26.6961 38.1271 26.8839 37.9018C27.4893 37.1745 28.0291 37.869 28.7425 37.8326C29.2266 37.8079 29.6139 37.5854 29.9452 37.248C30.1053 37.0846 29.8527 36.832 29.694 36.9969C29.0505 37.6648 28.4597 37.4384 27.7128 37.1814C27.5235 37.1163 27.3651 37.0431 27.1533 37.101C26.9673 37.1519 26.8548 37.272 26.7391 37.4187C26.6477 37.5345 26.6284 37.7285 26.532 37.8319C26.5014 38.0794 26.3656 38.134 26.125 37.9968C25.8454 38.0066 25.6158 37.8967 25.4359 37.667C25.2951 37.5476 25.0916 37.7438 25.2307 37.8719Z" fill="#3A4C77"/>
<path d="M30.7492 35.159C31.8685 34.7859 31.8074 36.085 32.5252 36.4756C33.041 36.7562 33.8676 36.6401 34.4151 36.5273C34.5166 36.5062 34.5363 36.35 34.4442 36.3034C34.0718 36.1138 33.7941 36.2095 33.3835 36.2244C32.9271 36.2412 32.6453 36.2204 32.3246 35.7716C32.1969 35.5929 32.1437 35.3847 31.9978 35.2147C31.6592 34.8205 31.1533 34.7335 30.6801 34.9086C30.5254 34.9653 30.5887 35.2125 30.7492 35.159Z" fill="#3A4C77"/>
<path d="M34.5705 37.8719C34.8937 38.1773 35.2301 38.4852 35.6938 38.5184C36.1819 38.5533 36.6468 38.3589 37.1505 38.3993C37.6951 38.4434 38.5483 38.4386 38.6014 37.7263C38.6073 37.6466 38.4959 37.6036 38.4435 37.6608C37.8491 38.3091 37.3391 38.0226 36.5732 38.0379C36.361 38.0419 36.159 38.1034 35.9482 38.1129C35.4598 38.1351 35.114 37.9367 34.7401 37.652C34.6127 37.5552 34.4566 37.7645 34.5705 37.8719Z" fill="#3A4C77"/>
<path d="M34.6295 34.4288C34.8792 34.367 35.1336 34.455 35.2749 34.6753C35.3797 34.8383 35.2996 35.0873 35.4485 35.2129C35.4998 35.2562 35.5522 35.2595 35.6119 35.234C35.9424 35.0928 35.6534 34.5402 35.4871 34.3779C35.2388 34.1358 34.8584 34.1107 34.5527 34.2457C34.4457 34.2931 34.5232 34.4547 34.6295 34.4288Z" fill="#3A4C77"/>
<path d="M25.9572 35.314C25.8807 34.946 26.2575 34.7298 26.5709 34.7273C26.8428 34.7251 27.0896 34.863 27.3575 34.8536C27.4954 34.8488 27.5224 34.6865 27.423 34.6112C26.83 34.1623 25.4552 34.4433 25.6918 35.3872C25.7355 35.5597 25.9932 35.4862 25.9572 35.314Z" fill="#3A4C77"/>
<path d="M29.3224 33.5738C29.2561 32.7417 30.5585 32.9459 30.9902 32.6849C31.087 32.6263 31.0805 32.4942 30.9902 32.4345C30.6069 32.1808 29.8898 32.441 29.5299 32.647C29.1688 32.8534 28.9223 33.1941 28.998 33.6178C29.0304 33.7995 29.3369 33.7594 29.3224 33.5738Z" fill="#3A4C77"/>
<path d="M22.4522 37.8981C22.0169 38.2166 21.7781 38.7288 22.1133 39.21C22.4333 39.6693 23.055 39.6613 22.8191 40.4134C22.7194 40.7308 22.56 40.8378 22.6091 41.1865C22.6357 41.3743 22.9036 41.3077 22.9185 41.1446C22.968 40.6099 23.3779 40.2499 23.178 39.6926C23.1122 39.5092 22.9942 39.3698 22.8574 39.2336C22.7995 39.1758 22.7318 39.1266 22.6681 39.0753C22.4471 39.004 22.3827 38.8631 22.4752 38.6527C22.4413 38.455 22.5086 38.3007 22.6765 38.189C22.8231 38.0466 22.6255 37.7715 22.4522 37.8981Z" fill="#3A4C77"/>
<path d="M47.1285 65.4307L42.221 65.1948C41.4869 65.1595 40.863 65.7262 40.8277 66.4604L40.2409 78.6726C40.2056 79.4068 40.7723 80.0307 41.5065 80.066L46.414 80.3019C47.1481 80.3372 47.772 79.7705 47.8074 79.0363L48.3938 66.8241C48.4294 66.0895 47.8627 65.4656 47.1285 65.4307Z" fill="#1A2039"/>
<path d="M46.9807 66.99C46.9807 67.3861 46.6597 67.7067 46.264 67.7067C45.8683 67.7067 45.5473 67.3857 45.5473 66.99C45.5473 66.5944 45.8683 66.2733 46.264 66.2733C46.6597 66.2733 46.9807 66.5944 46.9807 66.99Z" fill="white"/>
<path d="M40.6249 70.4634C40.7487 71.4811 40.8175 71.2511 40.5256 72.7482C42.5181 72.4126 44.471 68.6317 45.16 69.3674C45.6401 69.8802 42.7594 72.9946 42.9196 73.3681C43.0204 73.6036 46.8289 69.6003 47.134 70.4342C47.3487 71.021 43.7069 74.4604 43.827 74.8488C43.9122 75.1247 47.2228 72.8636 47.3487 73.1118C47.6676 73.7412 44.5925 76.034 44.3177 76.5152C44.0793 76.9324 46.7059 75.7268 46.814 76.1953C46.9742 76.8887 43.3269 78.6825 41.3729 79.2358C40.6471 79.4414 39.3757 79.6904 38.7325 80.0846C38.4289 80.2706 35.403 81.7444 35.2144 81.5715C33.8709 80.3409 34.917 77.3885 36.1419 76.3289C37.852 74.8492 38.699 71.0072 40.6249 70.4634Z" fill="#FF8A6B"/>
<path d="M19.288 87.5845C21.4152 88.3812 36.8015 82.341 38.7321 80.0846C39.2963 79.425 38.2218 76.7289 36.1412 76.3288C32.8604 77.5752 25.6165 78.3236 22.2924 79.4494C21.5047 79.7162 20.3421 69.1584 19.9504 68.2204C18.6539 65.1155 18.6259 59.9787 15.2869 58.5675C12.2384 57.2793 9.58773 59.064 9.31219 62.3065C8.96748 66.3629 10.6342 73.5242 12.4062 77.0488C14.6401 81.4911 14.6313 85.8405 19.288 87.5845Z" fill="#4D8BD6"/>
<path d="M21.2124 80.2069C20.0637 80.6564 19.2305 81.9046 19.1198 83.1258C19.1114 83.2182 19.2392 83.2368 19.2829 83.1698C19.6043 82.677 19.7666 82.0982 20.1008 81.6061C20.4204 81.1354 20.819 80.7478 21.3398 80.5083C21.5076 80.4315 21.3872 80.1384 21.2124 80.2069Z" fill="#417CB7"/>
<path d="M21.3562 81.1406C21.0519 81.6251 20.657 82.6934 21.1484 83.1743C21.2168 83.2412 21.3358 83.2114 21.3617 83.1178C21.4345 82.8539 21.3329 82.5766 21.3377 82.3043C21.3442 81.941 21.4356 81.6061 21.6023 81.2844C21.6867 81.1217 21.4541 80.9844 21.3562 81.1406Z" fill="#417CB7"/>
<path d="M35.3662 77.6181C35.8649 77.9526 36.2766 78.3363 36.5543 78.8794C36.8037 79.3671 36.8819 79.9291 37.1571 80.3987C37.1968 80.4668 37.3071 80.438 37.3063 80.3583C37.2954 79.2641 36.55 77.7524 35.4802 77.3484C35.3156 77.2865 35.2348 77.53 35.3662 77.6181Z" fill="#417CB7"/>
</g>
<path d="M47.7805 89.5264L61.757 96.7234L56.7676 84.1698L47.7805 89.5264Z" fill="#ADC9F2"/>
<path d="M96.5685 68.1782C113.323 68.1782 126.906 52.9401 126.906 34.1431C126.906 15.346 113.323 0.107971 96.5685 0.107971C79.8135 0.107971 66.2309 15.346 66.2309 34.1431C66.2309 52.9401 79.8135 68.1782 96.5685 68.1782Z" fill="#FFC0D8"/>
<mask id="mask1_19_332" style="mask-type:luminance" maskUnits="userSpaceOnUse" x="66" y="0" width="61" height="69">
<path d="M96.5685 68.1782C113.323 68.1782 126.906 52.9401 126.906 34.1431C126.906 15.346 113.323 0.107971 96.5685 0.107971C79.8135 0.107971 66.2309 15.346 66.2309 34.1431C66.2309 52.9401 79.8135 68.1782 96.5685 68.1782Z" fill="white"/>
</mask>
<g mask="url(#mask1_19_332)">
<path d="M102.042 28.7336C102.051 27.7967 101.487 26.9555 101.288 26.04C100.809 23.8375 102.478 21.6928 102.413 19.44C102.394 18.799 102.235 18.1711 102.077 17.5497C101.75 16.2681 101.598 15.0196 101.598 13.6972C101.598 10.7691 100.483 9.88863 98.7175 9.53154C98.0627 9.39905 97.9174 8.47631 96.2358 7.60234C93.6561 6.26137 88.7599 7.42144 86.8748 9.00884C83.8343 11.5696 84.9994 12.6871 83.7542 14.7702C82.4795 16.9022 80.7421 18.1623 81.7369 20.4384C82.2614 21.6382 83.1522 22.7589 83.127 24.0679C83.1056 25.197 82.4023 26.1791 81.9415 27.2103C80.7101 29.9665 81.3136 33.4409 83.4022 35.6202C84.1146 36.3634 84.9714 36.9575 85.6721 37.7117C86.7976 38.9231 87.4787 40.5385 87.5609 42.19C87.5893 42.7633 87.5518 43.3577 87.7651 43.8906C88.1313 44.8057 89.1734 45.3044 90.1588 45.3244C91.1441 45.3444 92.0924 44.9793 93.0067 44.611C94.5781 43.9783 96.1393 43.3195 97.6889 42.6352C98.4853 42.2832 99.3079 41.9028 99.8627 41.2316C100.418 40.5593 100.637 39.674 100.771 38.8121C100.999 37.3361 101.024 35.8287 100.844 34.3462C100.76 33.6578 100.633 32.9589 100.758 32.2772C100.987 31.0316 102.031 29.9993 102.042 28.7336Z" fill="#FD515B"/>
<path d="M109.16 37.1431C111.019 40.4785 112.626 41.8533 114.188 44.5895C114.842 49.3906 109.866 50.6173 107.466 46.5631C104.092 40.8654 100.674 35.9565 100.707 32.8679C100.714 32.2528 101.799 29.45 102.414 29.4453C103.398 29.4376 104.336 30.0801 105.107 30.7731C107.103 32.5662 107.879 34.8445 109.16 37.1431Z" fill="#F2887C"/>
<path d="M114.329 43.1658C113.217 38.9329 110.359 28.5862 110.58 27.4785C110.853 26.1114 110.564 24.1199 110.572 23.8833C110.583 23.5644 111.248 21.3692 110.791 21.2738C110.375 21.1872 110.082 23.4724 109.636 23.4174C109.387 23.3868 109.896 18.5736 108.815 19.4276C108.628 19.5757 108.909 22.835 108.472 22.8463C108.151 22.8543 107.731 18.9442 106.96 18.9988C106.18 19.0541 107.677 22.9005 107.274 23.0188C106.561 23.2281 105.555 19.9565 104.967 20.4351C104.312 20.9673 105.971 22.9689 106.136 23.7963C106.247 24.3532 106.658 25.3055 106.131 25.5155C105.533 25.7535 105.258 23.1575 104.214 24.3769C104.628 24.6983 104.927 25.4372 105.188 26.356C105.508 27.4844 106.901 27.9193 107.244 28.6532C107.805 29.8533 107.859 38.4513 107.852 41.9676C107.848 43.7563 107.85 45.3247 108.46 47.0061C109.496 49.8605 113.77 50.2901 114.53 46.843C114.893 45.1992 114.756 44.794 114.329 43.1658Z" fill="#F99585"/>
<path d="M107.886 28.3631C108.095 28.4784 108.353 28.5309 108.592 28.5076C108.69 28.4981 108.789 28.4744 108.876 28.4275C108.954 28.3856 109.087 28.2022 109.164 28.2389C109.345 28.3259 109.581 28.0799 109.397 27.9368C109.179 27.7683 108.978 27.7686 108.789 27.9732C108.557 28.2247 108.265 28.0999 107.964 28.0737C107.808 28.0606 107.757 28.2921 107.886 28.3631Z" fill="#F2887C"/>
<path d="M108.986 29.2239C109.035 29.7517 109.069 30.2799 109.124 30.8073C109.173 31.2649 109.167 31.7545 109.328 32.1865C109.361 32.2757 109.481 32.2582 109.49 32.1647C109.586 31.2281 109.225 30.1365 109.074 29.2123C109.067 29.162 108.982 29.1733 108.986 29.2239Z" fill="#F2887C"/>
<path d="M83.4809 32.1348C82.3477 32.9324 83.1503 38.4095 83.5162 39.7461C84.4771 43.2547 87.0455 48.0861 87.035 54.467C87.0284 58.5263 84.0742 59.0483 83.3542 68.2331C90.1825 71.3864 107.137 69.7452 107.136 68.2331C107.132 62.8907 103.911 57.1082 104.318 52.8151C104.77 48.0537 107.285 45.1923 106.759 42.7247C105.938 38.8692 103.939 38.6232 103.198 36.1647C102.423 33.5941 102.414 32.3383 102.414 29.4449C102.414 29.4449 100.083 28.8425 99.8026 28.8785C95.9537 29.3714 91.8984 28.8017 88.1644 29.8577C86.6062 30.2988 85.3704 30.8048 83.4809 32.1348Z" fill="#BF3A7C"/>
<path d="M98.4882 40.6746C98.6553 41.3062 99.0626 41.7757 99.3622 42.345C99.7698 43.1189 99.8696 43.8859 100.023 44.7303C100.056 44.9123 100.315 44.853 100.328 44.6892C100.378 44.0402 100.199 43.3697 99.9515 42.7724C99.6301 41.9956 98.9923 41.3976 98.7099 40.6135C98.6604 40.4759 98.4496 40.5294 98.4882 40.6746Z" fill="#A0306E"/>
<path d="M90.4474 27.9059C90.4489 28.283 90.438 28.6965 90.1912 28.9815C89.8574 29.3673 88.1652 29.858 88.1652 29.858C89.4974 31.0217 91.1252 33.296 92.1735 34.7207C94.557 37.9603 96.3668 37.7073 97.9164 36.8545C99.4663 36.0016 100.322 30.57 99.8033 28.8789C99.8033 28.8789 97.3878 28.4755 96.8779 28.3168C95.8914 28.0096 95.6759 26.7331 95.6366 25.7008C95.59 24.4872 96.0829 21.339 96.0367 20.1254C94.2745 20.0864 91.5689 20.5953 89.8701 20.1254C89.9269 22.3258 90.4474 25.6906 90.4474 27.9059Z" fill="#F99585"/>
<path d="M91.0895 31.8429C91.6814 31.8473 92.2365 31.7745 92.8189 31.686C93.6485 31.5605 94.1548 31.7996 94.9097 32.0486C95.0975 32.1105 95.1947 31.872 95.0874 31.7435C94.149 30.621 92.2813 31.3752 91.0895 31.4174C90.8169 31.4276 90.8147 31.8407 91.0895 31.8429Z" fill="#F2887C"/>
<path d="M96.329 31.8C96.5222 31.3864 96.8473 31.0709 97.2732 30.9005C97.4748 30.8197 97.6863 30.7764 97.9044 30.7768C98.1016 30.7771 98.1799 30.8259 98.3481 30.7331C98.4198 30.6934 98.4212 30.6013 98.3724 30.5445C98.0936 30.2217 97.3958 30.4717 97.077 30.6308C96.6223 30.8572 96.2907 31.2368 96.1051 31.7057C96.0541 31.8338 96.2704 31.9255 96.329 31.8Z" fill="#F2887C"/>
<path d="M89.2321 22.1944C90.0605 23.915 93.3198 25.5221 95.1496 26.0692C96.6169 26.5078 98.5563 23.4142 98.7572 22.5613C99.067 21.2476 99.3109 19.9187 99.4885 18.5806C99.8099 16.1567 99.8434 13.4686 98.3488 11.5336C97.0198 9.81257 95.1234 9.39215 92.9565 9.56869C91.9005 9.65459 90.1555 10.3942 89.3558 11.0891C86.3346 13.7136 88.1721 19.9929 89.2321 22.1944Z" fill="#FFA492"/>
<path d="M96.9925 12.049C97.6183 13.0554 96.9925 15.3297 99.7626 16.3529C100.526 13.1625 98.6287 9.94215 95.5973 8.68817C94.3255 8.16219 88.1652 8.20806 85.7551 13.7634C84.9121 15.7061 83.7586 16.904 84.8804 18.7C87.5234 22.9311 87.0433 17.3092 90.0765 16.6951C94.0532 15.8899 91.8616 13.6968 96.9925 12.049Z" fill="#FD515B"/>
<path d="M88.8346 18.4783L88.8317 18.4437C88.7538 17.5181 88.0411 16.0588 87.1791 16.405C85.2747 17.1697 86.3102 19.5645 87.0422 20.6128C87.8227 21.7306 88.669 20.7864 88.7523 20.5495C88.9853 19.8881 89.0144 19.1564 88.8346 18.4783Z" fill="#FFA492"/>
<path d="M97.1578 21.3725C96.9849 21.3648 95.8317 21.8216 93.6849 21.4307C94.3608 23.5688 95.2399 23.5303 95.5238 23.5314C96.7461 23.5365 96.9878 22.5788 97.1578 21.3725Z" fill="white"/>
<path d="M93.9175 17.4747C93.8854 17.9286 93.5939 18.2781 93.2663 18.2548C92.9387 18.2319 92.6988 17.8453 92.7305 17.3914C92.7625 16.9375 93.0541 16.588 93.3817 16.6113C93.7096 16.6343 93.9495 17.0208 93.9175 17.4747Z" fill="#BA3845"/>
<path d="M98.276 17.5341C98.244 17.988 97.9524 18.3374 97.6248 18.3141C97.2968 18.2912 97.0573 17.9046 97.089 17.4507C97.121 16.9968 97.4126 16.6474 97.7402 16.6707C98.0678 16.694 98.3077 17.0802 98.276 17.5341Z" fill="#BA3845"/>
<path d="M87.8638 17.6145C87.573 17.3721 87.1631 17.1355 86.8158 17.4252C86.4842 17.7015 86.636 18.2333 86.7267 18.5831C86.8231 18.9562 87.5704 20.8454 88.2431 20.2007C88.3173 20.1297 88.2551 20.0209 88.1652 20.0129C87.6348 19.9649 87.4052 19.3333 87.237 18.9082C87.1485 18.6847 87.0721 18.4572 87.0219 18.2217C86.9134 17.9683 86.9825 17.7532 87.2297 17.5759C87.4139 17.612 87.5748 17.6902 87.7127 17.8107C87.8256 17.8948 87.9726 17.7051 87.8638 17.6145Z" fill="#F2887C"/>
<path d="M88.2492 18.5198C87.5704 18.7407 87.8488 19.9579 88.5667 19.832C88.6951 19.8094 88.6959 19.5932 88.5667 19.5717C88.353 19.5361 88.1746 19.4316 88.131 19.2008C88.0964 19.0185 88.155 18.7866 88.3188 18.6843C88.4021 18.6319 88.3497 18.487 88.2492 18.5198Z" fill="#F2887C"/>
<path d="M95.3738 16.5899C95.305 17.2028 95.3782 17.77 95.6294 18.3356C95.7247 18.55 95.8372 18.7586 95.9817 18.9442C96.045 19.0254 96.175 19.1088 96.2063 19.1914C96.2787 19.3821 95.8579 19.855 95.6268 19.9183C95.3931 19.9824 95.4914 20.3329 95.7265 20.2801C96.2318 20.1662 96.6668 19.6577 96.5488 19.1113C96.4884 18.8321 96.246 18.6166 96.1106 18.3676C95.8121 17.8187 95.6945 17.2112 95.704 16.5899C95.7072 16.3726 95.3971 16.3838 95.3738 16.5899Z" fill="#F2887C"/>
<path d="M91.8317 15.1918C92.1444 14.9162 92.4982 14.7051 92.9026 14.5944C93.3238 14.479 93.6455 14.5744 94.055 14.6414C94.1901 14.6632 94.2531 14.5085 94.1457 14.4266C93.41 13.8653 92.2441 14.5249 91.7011 15.0611C91.6155 15.1452 91.7429 15.2697 91.8317 15.1918Z" fill="#FD515B"/>
<path d="M96.6154 14.641C96.8058 14.4172 97.0271 14.3142 97.3198 14.3003C97.5302 14.2905 97.7631 14.3655 97.9553 14.2654C98.0121 14.2359 97.9986 14.1638 97.9553 14.1314C97.7555 13.9818 97.3766 14.0233 97.1421 14.0619C96.856 14.1089 96.6285 14.2472 96.4454 14.4707C96.349 14.5893 96.5146 14.7597 96.6154 14.641Z" fill="#FD515B"/>
<path d="M89.0107 15.7265C89.9928 15.622 90.6932 15.2373 91.3207 14.4674C92.7465 12.7184 93.9317 11.5645 96.2882 11.27C96.5051 11.2427 96.5182 10.9068 96.2882 10.9199C95.0422 10.9923 93.8636 11.4102 92.8575 12.1546C91.4637 13.1865 90.9079 15.1386 89.0107 15.376C88.7916 15.4036 88.7851 15.7505 89.0107 15.7265Z" fill="#FF7683"/>
<path d="M88.5783 13.6229C89.821 13.5544 90.1919 12.536 90.9421 11.6908C92.1855 10.2894 93.8953 9.77722 95.7156 9.84128C95.9074 9.8482 95.8947 9.57483 95.7156 9.55117C94.4973 9.39101 93.2732 9.65346 92.2015 10.2551C90.9035 10.9839 89.9448 13.1202 88.5452 13.3775C88.4069 13.4027 88.4378 13.6305 88.5783 13.6229Z" fill="#FF7683"/>
<path d="M87.0255 11.1837C88.0734 10.7764 88.8844 10.095 89.8054 9.47075C91.2686 8.47885 92.7086 8.25354 94.4365 8.36019C94.5323 8.36601 94.5516 8.21568 94.4591 8.19311C91.285 7.4207 89.572 9.88899 86.952 11.0101C86.8544 11.052 86.925 11.2227 87.0255 11.1837Z" fill="#FF7683"/>
<path d="M84.1681 15.8513C82.909 17.2392 82.4191 19.5663 83.6691 21.1355C83.7484 21.2352 83.9228 21.1275 83.8824 21.0114C83.2566 19.2194 83.118 17.6385 84.416 16.0988C84.559 15.9288 84.3213 15.6828 84.1681 15.8513Z" fill="#FF7683"/>
<path d="M85.1589 17.2614C84.7716 17.8431 84.6005 18.499 84.6868 19.1964C84.7523 19.7242 84.9511 20.4464 85.4578 20.7078C85.5353 20.7478 85.6408 20.6812 85.6121 20.5891C85.4636 20.1166 85.1367 19.7508 85.045 19.2419C84.9289 18.5984 85.0483 17.9494 85.3664 17.3823C85.4421 17.2465 85.2437 17.1333 85.1589 17.2614Z" fill="#FF7683"/>
<path d="M84.107 23.7708C84.2045 24.331 84.3796 24.9629 84.3355 25.5304C84.29 26.1172 83.9246 26.6457 83.7448 27.195C83.4743 28.0205 83.4536 28.8759 83.6632 29.7157C83.6967 29.8496 83.886 29.7903 83.8656 29.66C83.6461 28.2451 84.0669 27.3548 84.503 26.0691C84.7676 25.2887 84.5532 24.4745 84.396 23.6919C84.3581 23.5008 84.0742 23.583 84.107 23.7708Z" fill="#FF7683"/>
<path d="M85.5604 24.4235C86.2451 25.7314 85.6063 26.6621 85.3726 27.9536C85.2812 28.4595 85.2998 28.8963 85.6427 29.2833C85.7038 29.3524 85.8156 29.2789 85.793 29.1956C85.4971 28.0996 86.0118 27.3905 86.1282 26.3436C86.2058 25.6473 86.0023 24.9659 85.6594 24.3653C85.623 24.3008 85.5262 24.358 85.5604 24.4235Z" fill="#FF7683"/>
<path d="M87.21 24.6255C87.4754 25.2676 87.7273 25.9057 87.6807 26.6151C87.6359 27.2962 87.3884 27.9459 87.344 28.6291C87.3378 28.7227 87.467 28.7256 87.4961 28.6499C88.0665 27.1797 88.0931 25.9494 87.475 24.5141C87.411 24.3645 87.1471 24.4734 87.21 24.6255Z" fill="#FF7683"/>
<path d="M98.5563 11.1302C99.2723 11.5146 99.7921 12.0344 100.077 12.8046C100.273 13.332 100.296 13.9137 100.517 14.4262C100.554 14.5125 100.675 14.4597 100.68 14.3822C100.763 12.9651 99.8853 11.5834 98.6546 10.962C98.5432 10.9052 98.4449 11.0701 98.5563 11.1302Z" fill="#FF7683"/>
<path d="M98.1115 12.2088C98.0496 13.315 98.5224 14.2999 99.4644 14.8973C99.6508 15.0156 99.8161 14.7251 99.6359 14.6035C98.834 14.0637 98.2774 13.1788 98.2014 12.2088C98.197 12.1513 98.1147 12.1502 98.1115 12.2088Z" fill="#FF7683"/>
<path d="M100.342 17.7714C100.943 19.4043 100.848 20.7366 100.393 22.3717C100.052 23.6005 100.131 24.8552 100.305 26.1063C100.324 26.2395 100.55 26.2089 100.541 26.0743C100.467 25.0405 100.328 23.9838 100.536 22.9551C100.67 22.2905 100.977 21.6811 101.083 21.0092C101.259 19.8928 101.222 18.6305 100.584 17.6691C100.506 17.5516 100.287 17.6225 100.342 17.7714Z" fill="#FF7683"/>
<path d="M99.3407 23.6587C99.1121 24.7758 99.0877 26.186 99.7 27.1954C99.76 27.294 99.9071 27.2285 99.8827 27.1182C99.7484 26.5063 99.522 25.9537 99.4583 25.3215C99.4029 24.7718 99.4128 24.2255 99.483 23.678C99.4936 23.5972 99.3571 23.579 99.3407 23.6587Z" fill="#FF7683"/>
<path d="M97.7915 25.9906C97.7231 26.2858 97.6918 26.5861 97.7293 26.8882C97.7591 27.1281 97.7897 27.4429 97.983 27.6064C98.0624 27.6733 98.1697 27.6267 98.1792 27.5252C98.1992 27.3159 98.0809 27.1055 98.0478 26.8966C98.0037 26.6196 98.0052 26.3393 98.0514 26.0626C98.0802 25.8941 97.8316 25.8184 97.7915 25.9906Z" fill="#FF7683"/>
<path d="M116.453 29.5905L112.023 28.8974C111.36 28.7937 110.739 29.2469 110.635 29.9097L108.91 40.9349C108.806 41.5977 109.259 42.2191 109.922 42.3228L114.353 43.0159C115.016 43.1196 115.637 42.6664 115.741 42.0036L117.466 30.9784C117.569 30.3156 117.116 29.6942 116.453 29.5905Z" fill="white"/>
<path d="M116.007 31.9874C116.445 31.9874 116.801 31.632 116.801 31.1935C116.801 30.7551 116.445 30.3997 116.007 30.3997C115.568 30.3997 115.213 30.7551 115.213 31.1935C115.213 31.632 115.568 31.9874 116.007 31.9874Z" fill="#1A2039"/>
<path d="M114.201 37.3746C114.075 37.1668 117.481 34.6541 116.441 34.2541C116.224 34.1707 114.163 36.5352 113.891 36.2087C113.691 35.9685 116.762 32.9739 116.081 32.6539C115.642 32.4472 113.518 35.2602 113.049 35.1346C112.351 34.9478 115.161 32.054 114.441 31.8939C113.64 31.7159 112.331 34.3094 111.8 34.9344C111.443 35.3552 110.47 36.0056 110.08 35.6147C109.894 35.4283 110.182 34.1583 110 33.969C109.687 33.6436 109.249 34.9289 109.045 35.3315C108.841 35.7344 108.889 36.2109 108.873 36.6623C108.84 37.6185 108.5 38.3301 108.083 39.0112C104.507 42.8306 100.512 45.2436 97.9975 47.0974C95.9158 43.8564 91.776 38.2231 91.2763 37.5752C89.5072 35.2824 88.1251 31.6114 85.3416 31.6686C79.7145 31.7843 81.6306 40.4249 84.5386 43.3672C88.0774 46.9478 92.1186 52.0948 96.4156 54.7181C99.6552 56.6961 108.381 45.4962 110.755 40.6608C111.462 40.1414 112.153 39.9048 113.188 39.6307C113.411 39.5717 114.405 38.6322 114.59 38.4957C114.84 38.3119 116.31 36.9418 116.107 36.5352C115.921 36.1651 114.59 38.0145 114.201 37.3746Z" fill="#FFA492"/>
<path d="M97.026 47.912C96.262 48.6597 95.7363 49.7353 95.9092 50.8208C95.9413 51.0221 96.2117 50.9423 96.2336 50.7771C96.3628 49.7888 96.591 48.924 97.2844 48.1705C97.4432 47.9976 97.1949 47.7468 97.026 47.912Z" fill="#F99585"/>
</g>
<path d="M87.4456 64.0508L89.299 78.0266L96.5685 65.3612L87.4456 64.0508Z" fill="#BF3A7C"/>
</svg>
