<svg width="19" height="16" viewBox="0 0 19 16" fill="none" xmlns="http://www.w3.org/2000/svg">
<path d="M18.2405 8.41545L11.1888 15.4671C11.0786 15.5772 10.9292 15.639 10.7734 15.639C10.6176 15.6389 10.4682 15.577 10.3581 15.4669C10.2479 15.3567 10.186 15.2074 10.1859 15.0516C10.1859 14.8958 10.2477 14.7463 10.3578 14.6361L16.4063 8.5876H0.587635C0.431785 8.5876 0.282317 8.52569 0.172114 8.41549C0.0619113 8.30529 0 8.15582 0 7.99997C0 7.84412 0.0619113 7.69465 0.172114 7.58445C0.282317 7.47425 0.431785 7.41233 0.587635 7.41233H16.4063L10.3578 1.36382C10.2477 1.2536 10.1859 1.10416 10.1859 0.948376C10.186 0.792588 10.2479 0.643197 10.3581 0.533044C10.4682 0.422892 10.6176 0.360995 10.7734 0.360962C10.9292 0.360929 11.0786 0.422762 11.1888 0.532867L18.2405 7.58449C18.295 7.63905 18.3383 7.70382 18.3679 7.77511C18.3974 7.8464 18.4126 7.92281 18.4126 7.99997C18.4126 8.07713 18.3974 8.15354 18.3679 8.22483C18.3383 8.29612 18.295 8.36089 18.2405 8.41545Z" fill="#FDF1E8"/>
</svg>
